<?xml version="1.0" encoding="UTF-8" standalone="no"?>
<!-- Generator: Adobe Illustrator 19.0.0, SVG Export Plug-In . SVG Version: 6.00 Build 0)  -->

<svg
   xmlns:dc="http://purl.org/dc/elements/1.1/"
   xmlns:cc="http://creativecommons.org/ns#"
   xmlns:rdf="http://www.w3.org/1999/02/22-rdf-syntax-ns#"
   xmlns:svg="http://www.w3.org/2000/svg"
   xmlns="http://www.w3.org/2000/svg"
   xmlns:sodipodi="http://sodipodi.sourceforge.net/DTD/sodipodi-0.dtd"
   xmlns:inkscape="http://www.inkscape.org/namespaces/inkscape"
   version="1.1"
   id="Livello_1"
   x="0px"
   y="0px"
   viewBox="0 0 162.99213 81.49606"
   xml:space="preserve"
   inkscape:version="0.91 r13725"
   sodipodi:docname="board0.2.svg"
   width="46mm"
   height="23mm"><metadata
     id="metadata12"><rdf:RDF><cc:Work
         rdf:about=""><dc:format>image/svg+xml</dc:format><dc:type
           rdf:resource="http://purl.org/dc/dcmitype/StillImage" /><dc:title></dc:title></cc:Work></rdf:RDF></metadata><defs
     id="defs10" /><sodipodi:namedview
     pagecolor="#ffffff"
     bordercolor="#666666"
     borderopacity="1"
     objecttolerance="10"
     gridtolerance="10"
     guidetolerance="10"
     inkscape:pageopacity="0"
     inkscape:pageshadow="2"
     inkscape:window-width="1423"
     inkscape:window-height="698"
     id="namedview8"
     showgrid="false"
     units="mm"
     inkscape:zoom="2.8284271"
     inkscape:cx="40.036439"
     inkscape:cy="28.09322"
     inkscape:window-x="0"
     inkscape:window-y="23"
     inkscape:window-maximized="0"
     inkscape:current-layer="Livello_1" /><style
     type="text/css"
     id="style3">
	.st0{fill:#010202;}
	.st1{fill:none;stroke:#E52420;stroke-width:0.25;stroke-miterlimit:10;}
	.st2{fill:#FFFFFF;}
</style><g
     id="g3340"
     transform="translate(-5.728742,9.3643804)"><path
       style="fill:#010202"
       inkscape:connector-curvature="0"
       d="m 7.1,69.196058 c 0,-25.249938 0,-50.374876 0,-75.6248139 53.374869,0 106.87474,0 160.24961,0 0,25.2499379 0,50.3748759 0,75.6248139 -53.24987,0 -106.874741,0 -160.24961,0 z"
       class="st0"
       id="XMLID_118_" /><rect
       style="fill:none;stroke:#e52420;stroke-width:0.31249923;stroke-miterlimit:10"
       height="70.624825"
       width="155.24962"
       class="st1"
       y="-3.9287622"
       x="9.5999947"
       id="XMLID_1_" /><path
       style="fill:#ffffff"
       inkscape:connector-curvature="0"
       d="m 160.97462,-0.17877126 c 0,20.99994826 0,42.12489626 0,63.12484426 -24.24994,0 -48.37488,0 -72.62482,0 0,-7.749981 0,-15.499962 0,-23.249943 -0.124999,-0.124999 -0.249999,-0.249999 -0.249999,-0.249999 -0.249999,-0.249999 -0.374999,-0.624998 -0.374999,-0.999997 0,-1.749996 0,-3.624992 0,-5.374987 0,-0.25 0,-0.499999 0,-0.874998 0.874998,0 1.749996,0 2.749993,0 0,0.125 0,0.125 0,0.249999 0,1.999995 0,3.99999 0,6.124985 0,0.374999 -0.125,0.624999 -0.374999,0.874998 -0.125,0.125 -0.125,0.125 -0.249999,0.249999 0,7.249983 0,14.624965 0,21.999946 23.249943,0 46.624883,0 69.874833,0 0,-1.374996 0,-2.624993 0,-3.99999 -1.375,0 -2.75,0 -4.12499,0 0,0.749998 0,1.499997 0,2.374994 -1.875,0 -3.75,0 -5.74999,0 0,-1.999995 0,-3.99999 0,-6.124985 1.87499,0 3.74999,0 5.74999,0 0,0.749999 0,1.624996 0,2.374995 1.37499,0 2.74999,0 4.12499,0 0,-2.499994 0,-5.124988 0,-7.624982 -0.25,0 -3.125,-0.124999 -4.12499,0 0,0.374999 0,0.749999 0,1.249997 0,0.374999 0,0.749998 0,1.124998 -1.875,0 -3.875,0 -5.74999,0 0,-1.999996 0,-4.12499 0,-6.124985 1.87499,0 3.87499,0 5.74999,0 0,0.749998 0,1.624996 0,2.374994 1.37499,0 2.74999,0 4.12499,0 0,-15.374962 0,-30.749925 0,-46.1248866 -31.62493,0 -63.24985,0 -94.874772,0 0,0.9999975 0,1.999995 0,2.9999926 0.749998,0 1.499996,0 2.124995,0 0,0.7499981 0,1.624996 0,2.3749941 0.499999,0 0.999997,0 1.499996,0 0,-0.374999 0,-0.7499981 0,-0.9999975 1.874996,0 3.874991,0 5.749986,0 0,1.9999945 0,3.9999895 0,6.1249844 -1.874995,0 -3.87499,0 -5.749986,0 0,-1.249997 0,-2.3749939 0,-3.6249909 -0.499999,0 -0.999997,0 -1.499996,0 0,0.749998 0,1.499996 0,2.3749939 -1.874995,0 -3.874991,0 -5.749986,0 0,-1.9999949 0,-3.9999895 0,-6.1249843 0.749998,0 1.499996,0 2.124995,0 0,-0.9999976 0,-1.9999951 0,-2.9999926 -0.25,0 -21.124948,-0.1249997 -22.249946,0 0,3.3749917 0,6.749983 0,10.1249749 0,3.374992 0,6.749983 0,10.124975 -2.624993,0 -5.249987,0 -7.87498,0 0,-0.374999 0,-0.874998 0,-1.374997 1.124997,0 2.124995,0 3.249992,0 1.124997,0 2.124995,0 3.249992,0 0,-6.749983 0,-13.4999659 0,-20.24994956 40.374901,-0.1249997 80.9998,-0.1249997 121.2497,-0.1249997 z M 139.84967,23.946169 c 4.49999,0 8.99998,0 13.49997,0 0,-2.499994 0,-4.999988 0,-7.624981 -5.99998,0 -11.99997,0 -17.87496,0 0,4.499989 0,8.999978 0,13.499967 -0.99999,0 -1.87499,0 -2.87499,0 0,0.499999 0,0.999997 0,1.499996 -2.99999,0 -5.99998,0 -8.99998,0 0,-1.499996 0,-2.999993 0,-4.499989 1.25,0 2.5,0 3.74999,0 0,-0.499999 0,-1.124997 0,-1.624996 -6.99998,0 -13.87496,0 -20.87494,0 0,-2.749993 0,-5.499986 0,-8.24998 -0.125,0 -0.25,0 -0.375,0 -0.125,0 -0.25,0 -0.375,0 0,-2.124994 0,-4.249989 0,-6.249984 0.875,0 1.74999,0 2.62499,0 0,2.124995 0,4.12499 0,6.249984 -0.25,0 -0.375,0 -0.625,0 0,0.25 -0.125,5.874986 0,6.999983 6.99999,0 13.87497,0 20.87495,0 0,0.999998 0,1.999995 0,2.999993 1.25,0 2.5,0 3.87499,0 0,0.499999 0,0.999997 0,1.499996 0.5,0 1,0 1.5,0 0,-4.499989 0,-8.999978 0,-13.499967 6.87498,0 13.74996,0 20.62495,0 0,3.374992 0,6.874983 0,10.249975 -4.49999,0 -8.99998,0 -13.49997,0 0,5.749986 0,11.374972 0,17.124958 -2.87499,0 -5.87498,0 -8.74998,0 l 0,0 0,0 c 0,0.624998 0,1.374997 0,1.999995 -1.24999,0 -2.37499,0 -3.62499,0 0,-1.749996 0,-3.624991 0,-5.374987 1.25,0 2.375,0 3.62499,0 0,0.624999 0,1.249997 0,1.999995 2.5,0 4.99999,0 7.49998,0 0,-5.624986 0,-11.374972 0,-16.999958 z M 85.099808,5.5712146 c 0,0.1249997 0,0.3749991 0,0.4999988 20.999952,0 41.999902,0 62.999842,0 0,0.8749977 0,1.8749947 0,2.7499927 1.25,0 2.5,0 3.87499,0 0,1.4999969 0,2.9999929 0,4.4999889 -2.99999,0 -5.99998,0 -8.99997,0 0,-1.499996 0,-2.999992 0,-4.4999889 l 0,0 0,0 c 1.24999,0 2.49999,0 3.74999,0 l 0,0 c 0,-0.499998 0,-0.874998 0,-1.374996 -20.49995,0 -41.1249,0 -61.624852,0 0,1.374996 0,2.7499929 0,4.1249899 -1.874995,0 -3.87499,0 -5.749986,0 0,-1.9999959 0,-3.9999909 0,-6.1249851 1.749996,0.1249997 3.624992,0.1249997 5.749986,0.1249997 z M 144.72466,44.946118 c 0,1.999995 0,4.124989 0,6.124985 -1.87499,0 -3.74999,0 -5.74998,0 0,-0.749999 0,-1.624996 0,-2.374995 -4.74999,0 -9.49998,0 -14.24997,0 0,-1.374996 0,-2.874993 0,-4.249989 -0.25,0 -0.375,0 -0.625,0 -0.125,0 -0.375,0 -0.625,0 0,-0.624999 0,-1.374997 0,-1.999995 -7.24998,0 -14.49996,0 -21.74994,0 0,-1.249997 0,-2.499994 0,-3.874991 -0.25,0 -0.375,0 -0.625,0 0,-2.124995 0,-4.12499 0,-6.249984 0.875,0 1.74999,0 2.62499,0 0,0.249999 0.125,5.374986 0,6.249984 -0.25,0 -0.5,0 -0.625,0 0,0.874998 0,1.624996 0,2.499994 6.74999,0 13.62497,0 20.37495,0 0,-0.624998 0,-1.249997 0,-1.874995 0.25,0 2.5,-0.125 3.5,0 0,1.749995 0,3.499991 0,5.374986 -0.375,0 -0.625,0 -1,0 0,0.999998 0,1.874996 0,2.874993 4.24999,0 8.62498,0 12.87497,0 0,-0.749998 0,-1.624996 0,-2.374994 2.12499,-0.124999 3.99999,-0.124999 5.87498,-0.124999 z M 48.849897,15.196191 c 0,1.374996 0,2.874993 0,4.249989 0.749999,0 1.499997,0 2.249995,0 0,-0.374999 0,-0.749998 0,-1.124997 1.499996,0 2.874993,0 4.374989,0 0,0.374999 0,0.749998 0,1.124997 0.374999,0 8.12498,0.125 9.374977,0 0,-0.499999 0,-0.999997 0,-1.499996 1.874996,0 3.874991,0 5.749986,0 0,1.999995 0,3.99999 0,6.124985 -1.874995,0 -3.749991,0 -5.749986,0 0,-1.124997 0,-2.124995 0,-3.249992 -3.124992,0 -6.249985,0 -9.374977,0 0,0.125 0,0.374999 0,0.499999 0,0.124999 0,0.374999 0,0.624998 -1.499996,0 -2.874993,0 -4.374989,0 0,-0.374999 0,-0.749998 0,-1.124997 -0.749998,0 -1.499996,0 -2.249995,0 l 0,0.125 c -0.749998,0 -1.499996,0 -2.249994,0 0,1.124997 0,2.249994 0,3.249992 -0.249999,0 -12.24997,0.124999 -13.249967,0 0,-0.375 0,-0.874998 0,-1.374997 1.999995,0 3.99999,0 5.874985,0 1.999995,0 3.99999,0 5.999985,0 0,-0.624999 0,-1.249997 0,-1.999995 -0.749998,0 -1.624996,0 -2.374994,0 0,-1.874996 0,-3.874991 0,-5.749986 1.874996,0.125 3.874991,0.125 5.999985,0.125 z m 63.374843,13.249967 c 0,1.249997 0,2.499994 0,3.874991 0.25,0 0.5,0 0.75,0 0,2.124994 0,4.124989 0,6.249984 -0.875,0 -1.75,0 -2.62499,0 0,-2.124995 0,-4.12499 0,-6.249984 0.25,0 0.375,0 0.62499,0 0,-0.874998 0,-1.624996 0,-2.499994 -0.99999,0 -1.99999,0 -3.12499,0 0,0.874998 0,1.624996 0,2.499994 0.25,0 0.375,0 0.625,0 0,2.124994 0,4.124989 0,6.249984 -0.875,0 -1.74999,0 -2.62499,0 0,-2.124995 0,-4.12499 0,-6.249984 0.25,0 0.5,0 0.75,0 0,-0.874998 0,-1.624996 0,-2.499994 -8.374984,0 -16.624964,0 -24.999943,0 0,0.749998 0,1.499996 0,2.374994 -1.999995,0 -3.874991,0 -5.874986,0 0,-1.999995 0,-3.99999 0,-6.124985 1.874996,0 3.874991,0 5.749986,0 l 0,0 0,0 c 0,0.749998 0,1.499996 0,2.374994 10.124975,0 20.499953,0 30.749923,0 z m 5.12499,10.124975 c -0.875,0 -1.75,0 -2.74999,0 0,-2.124995 0,-4.12499 0,-6.249984 0.87499,0 1.74999,0 2.62499,0 0,0.874997 0,1.624996 0,2.499993 6.49998,0 12.99997,0 19.62495,0 0,-5.124987 0,-10.249974 0,-15.249962 1.875,0 3.87499,0 5.74999,0 0,-0.499999 0,-0.999998 0,-1.499996 2.99999,0 5.99998,0 8.99997,0 0,1.499996 0,2.999992 0,4.499989 -2.99999,0 -5.99998,0 -8.99997,0 0,-0.499999 0,-0.999998 0,-1.499997 -1.5,0 -3,0 -4.49999,0 0,5.124988 0,10.124975 0,15.249963 l 0,0 0,0 c -6.99998,0 -13.87497,0 -20.87495,0 0.125,0.624998 0.125,1.374996 0.125,2.249994 z M 57.599876,25.821165 c 0,-0.375 0,-0.749999 0,-1.124998 1.499996,0 2.874993,0 4.374989,0 0,0.374999 0,0.749998 0,1.124998 2.249995,0 4.374989,0 6.624984,0 0,0.124999 0,0.124999 0,0.249999 0.749998,0 1.499996,0 2.249994,0 0,1.999995 0,3.99999 0,6.124985 -0.249999,0 -4.874988,0.125 -5.749985,0 0,-1.624996 0,-3.374992 0,-4.999988 -0.999998,0 -1.999996,0 -2.999993,0 0,0.374999 0,0.749998 0,1.124997 -1.499996,0 -2.874993,0 -4.374989,0 0,-0.374999 0,-0.749998 0,-1.124997 -7.999981,0 -16.124961,0 -24.124941,0 0,-0.499999 0,-0.874998 0,-1.374996 7.749981,0 15.874961,0 23.999941,0 z M 112.22474,19.44618 c 3.74999,0 7.49998,0 11.24997,0 0,-0.499999 0,-0.999997 0,-1.499996 3,0 5.99999,0 8.99998,0 0,1.499996 0,2.999993 0,4.499989 -2.99999,0 -5.99998,0 -8.99998,0 0,-0.499999 0,-0.999998 0,-1.499996 -4.24999,0 -8.37498,0 -12.62496,0 l 0,0 0,0 c 0,-1.249997 0,-2.499994 0,-3.749991 -0.25,0 -0.375,0 -0.625,0 0,-2.124995 0,-4.24999 0,-6.374985 0.87499,0 1.74999,0 2.62499,0 0,2.124995 0,4.24999 0,6.249985 -0.25,0 -0.5,0 -0.625,0 0,0.749998 0,1.499996 0,2.374994 z M 92.224791,10.696202 c 0.874998,0 1.749996,0 2.624993,0 0,2.124995 0,4.12499 0,6.249984 -0.249999,0 -0.499998,0 -0.749998,0 0,1.624996 0,3.124993 0,4.749989 -4.249989,0 -8.499979,0 -12.749968,0 0,0.749998 0,1.499996 0,2.374994 -1.874996,0 -3.874991,0 -5.749986,0 0,-0.25 -0.125,-5.124988 0,-6.124985 1.874995,0 3.87499,0 5.749986,0 0,0.749998 0,1.624996 0,2.374994 3.87499,0 7.624981,0 11.374972,0 0,-1.124997 0,-2.249994 0,-3.374992 -0.25,0 -0.374999,0 -0.624999,0 0.125,-2.124994 0.125,-4.124989 0.125,-6.249984 z M 50.349894,10.321203 c 0,-0.7499989 0,-1.4999969 0,-2.3749949 -0.499999,0 -0.999998,0 -1.499997,0 0,0.749999 0,1.499997 0,2.1249949 -1.999995,0 -3.99999,0 -6.124985,0 0,-1.8749949 0,-3.7499902 0,-5.7499853 0.25,0 4.999988,-0.1249997 6.124985,0 0,0.7499981 0,1.3749966 0,2.1249948 0.499999,0 0.999998,0 1.624996,0 0,-0.7499982 0,-1.624996 0,-2.3749942 1.874996,0 3.874991,0 5.749986,0 0,1.9999951 0,3.9999898 0,6.1249847 -1.999995,0.125 -3.87499,0.125 -5.874985,0.125 z M 132.59969,8.8212061 c 0,1.4999969 0,2.9999929 0,4.4999889 -0.125,0 -0.25,0 -0.375,0 -2.99999,0 -5.87498,0 -8.87498,0 -0.49999,0 -0.74999,-0.124999 -1.12499,-0.374999 -0.25,-0.249999 -0.5,-0.499999 -0.625,-0.749998 -0.125,-0.125 -0.125,-0.249999 -0.125,-0.374999 -1.375,0 -2.62499,0 -3.99999,0 0,1.749996 0,3.374992 0,5.124987 -0.875,0 -1.75,0 -2.74999,0 0,-2.124994 0,-4.124989 0,-6.249984 0.24999,0 0.49999,0 0.62499,0 0,-0.125 0,-0.125 0,-0.25 2,0 3.99999,0 5.87499,0 0,-0.124999 0.125,-0.249999 0.125,-0.249999 0.25,-0.4999989 0.625,-0.8749979 1.125,-1.1249969 0.25,-0.125 0.5,-0.125 0.74999,-0.125 3.125,-0.125 6.24999,-0.125 9.37498,-0.125 z M 37.974924,36.821138 c 0,2.999992 0,5.874985 0,8.874978 -2.624993,0 -5.124987,0 -7.749981,0 0,-0.25 -0.125,-7.749981 0,-8.874978 1.249997,0 2.624994,0 3.874991,0 1.249997,0 2.624993,0 3.87499,0 z M 30.224943,15.946189 c 0,-2.874993 0,-5.874986 0,-8.7499789 2.624994,0 5.124988,0 7.749981,0 0,0.25 0.125,7.3749819 0,8.7499789 -2.624993,0 -5.124987,0 -7.749981,0 z m 69.24983,-5.249987 c 0,2.124995 0,4.249989 0,6.249984 -0.874998,0 -1.749996,0 -2.624993,0 0,-0.249999 -0.125,-5.124987 0,-6.249984 0.749998,0 1.624996,0 2.624993,0 z m 1.874997,6.249984 c 0,-2.124994 0,-4.124989 0,-6.249984 0.875,0 1.74999,0 2.62499,0 0,0.249999 0.125,4.999987 0,6.249984 -1,0 -1.74999,0 -2.62499,0 z M 33.224936,29.946154 c 0,-0.499998 0,-0.874997 0,-1.374996 2.374994,0 4.749988,0 7.124982,0 0,0.499999 0,0.874998 0,1.374996 -2.374994,0 -4.624988,0 -7.124982,0 z M 76.22483,14.946191 c -1.249997,0 -2.374994,0 -3.624991,0 0,7.874981 0,15.624962 0,23.374943 -3.499991,0 -7.124982,0 -10.624974,0 0,-0.374999 0,-0.749998 0,-1.124997 -0.125,0 -0.374999,0 -0.499999,0 -0.124999,0 -0.374999,0 -0.499998,0 -0.125,0 -0.374999,0 -0.499999,0 0,-1.749996 0,-3.374992 0,-5.124988 -1.624996,0 -3.249992,0 -4.874988,0 0,-0.374999 0,-0.749998 0,-1.124997 -1.499996,0 -2.874993,0 -4.374989,0 0,0.125 0,0.374999 0,0.499999 -5.999986,0 -11.874971,0 -17.874956,0 0,0.374999 0,0.874998 0,1.249997 5.999985,0 11.87497,0 17.874956,0 0,0.499998 0,1.124997 0,1.624996 1.499996,0 2.874993,0 4.374989,0 0,-0.374999 0,-0.624999 0,-0.999998 1.249997,0 2.374994,0 3.499991,0 0,1.249997 0,2.499994 0,3.749991 -0.499999,0 -0.999997,0 -1.499996,0 0,1.249997 0,2.374994 0,3.624991 1.499996,0 2.874993,0 4.374989,0 0,-0.374999 0,-0.749998 0,-1.124997 3.99999,0 7.999981,0 11.999971,0 0,-7.749981 0,-15.499962 0,-23.249943 4.624988,0 9.249977,0 13.874966,0 0,0.249999 0,0.374999 0,0.624998 0.874997,0 1.749995,0 2.624993,0 0,-2.124994 0,-4.124989 0,-6.249984 -0.999997,0 -1.874995,0 -2.749993,0 0,1.374996 0,2.874993 0,4.249989 -1.124997,0.125 -9.999976,0 -10.249975,0 0,-3.499991 0,-7.1249819 0,-10.749973 26.374933,0 52.749873,0 79.124803,0 0,7.99998 0,16.12496 0,24.24994 -1.62499,0 -3.12499,0 -4.74999,0 0,-0.499999 0,-0.999997 0,-1.499996 -2.99999,0 -5.99998,0 -8.99997,0 -0.125,0.874998 0,4.249989 0,4.499989 1.24999,0 2.49999,0 3.74999,0 0,8.249979 0,16.624959 0,24.874939 -0.625,0 -1.25,0 -1.875,0 0,-0.749999 0,-1.624996 0,-2.374995 -1.87499,0 -3.87499,0 -5.74998,0 0,0.749999 0,1.624996 0,2.374995 -1.25,0.124999 -18.37496,0 -18.74996,0 0,-1.499997 0,-2.999993 0,-4.499989 -2.12499,0 -4.37499,0 -6.49998,0 l 0,-0.25 -15.249964,0 0,1.749996 15.249964,0 0,-0.125 c 1.62499,0 3.37499,0 5.12499,0 0,1.499997 0,2.999993 0,4.499989 6.74998,0 13.37496,0 20.12495,0 0,0.874998 0,1.624996 0,2.374994 0.87499,0.125 5.49998,0 5.74998,0 0,-0.749998 0,-1.499996 0,-2.249994 1,0 2,0 3.12499,0 0,-8.874978 0,-17.624957 0,-26.374935 1.375,0 2.625,0 3.87499,0 0,-0.624999 0,-1.124997 0,-1.624996 2.125,0 4.12499,0 6.12499,0 0,-8.999978 0,-17.999956 0,-26.9999336 -27.24993,0 -54.62487,0 -81.6248,-0.1249997 0,4.1249894 0,8.1249793 0,12.2499693 z m 22.999944,17.374958 c -0.874998,0 -1.749996,0 -2.624994,0 0,2.124994 0,4.124989 0,6.249984 0.25,0 0.499999,0 0.749998,0 0,3.249992 0,10.624974 0,10.624974 l 1.124998,0 0,0.624999 15.249964,0 0,-2.374995 -14.999965,0 c 0,-2.624993 0,-6.499984 0,-8.874978 0.249999,0 0.374999,0 0.624998,0 0.125,-2.124995 0.125,-4.249989 -0.124999,-6.249984 z m -0.749998,22.749944 0,0.499998 -4.24999,0 c 0,-5.874985 0,-11.249972 0,-16.999958 0.125,0 0.374999,0 0.624998,0 0,-2.124995 0,-4.12499 0,-6.249984 -0.874997,0 -1.749995,0 -2.624993,0 0,2.124994 0,4.124989 0,6.249984 0.249999,0 0.374999,0 0.624998,0 0,6.374985 0,18.374955 0,18.374955 l 5.624987,0 0,0.624999 15.249964,0 0,-2.499994 -15.249964,0 z m -86.874787,-39.124904 7.374982,0 0,-8.7499789 -7.374982,0 0,8.7499789 z m 0,29.749927 7.374982,0 0,-8.749979 -7.374982,0 0,8.749979 z m 7.124982,11.624971 c 0,0 0,0 0,0 l 0.25,0 c 0,0 0.125,0 0.125,0 0,0 0,-0.125 0,-0.125 l 0,0 c 0,0 0,0 0,0 0,0 0,0 0,0 0,0 0,0 -0.125,0 0,0 -0.125,0 -0.125,0 0,0 -0.125,0 -0.125,0 0,0 -0.124999,0 -0.124999,0 0,0 0,0 0,0 0,0 0,0 0,0 l 0.124999,0.125 c -0.124999,0 -0.124999,0 0,0 0,0 0,0 0,0 z m -0.499998,2.124995 c 0,0 0,0 0,0 -0.125,0 -0.125,-0.125 -0.25,-0.125 0,0 -0.124999,0 -0.124999,0 0,0 0,0 -0.125,0 0,0 0,0 0,0 0,0 0,0 0,0 l 0,0.874998 c 0,0 0,0 0,0 0,0 0,0 0,0 0,0 0,0 0.125,0 0,0 0.124999,0 0.124999,0 0,0 0.125,0 0.125,0 0,0 0,0 0.125,0 0,0 0,0 0,0 0,0 0,0 0,0 l 0,-0.749998 c 0.124999,0.125 0.124999,0 0,0 0.124999,0 0,0 0,0 z m -0.624999,-1.499996 c 0.125,0 0.125,0 0,0 0,-0.125 0.125,-0.125 0.125,-0.125 l 0,-0.749998 c 0,0 0,0 0,-0.125 0,0 0,0 0,0 0,0 0,0 -0.125,0 0,0 -0.124999,0 -0.124999,0 0,0 -0.125,0 -0.125,0 0,0 0,0 -0.125,0 0,0 0,0 0,0 0,0 0,0 0,0.125 l 0,0.999997 c 0,0 0,0 0,0 0,0 0.125,0 0.125,0 0,0 0.125,0 0.125,0 0,0 0.124999,0 0.124999,-0.124999 0,0.124999 0,0 0,0 z m -0.874998,1.499996 c 0,0 -0.124999,0 0,0 -0.124999,0 -0.124999,0.125 -0.249999,0.125 0,0 0,0 -0.125,0 0,0 0,0 0,0 0,0 0,0 0,0.124999 l 0,0.749998 c 0,0 0,0 0,0.125 0,0 0,0 0,0 0,0 0,0 0.125,0 0,0 0.125,0 0.125,0 0,0 0.124999,0 0.124999,0 0,0 0,0 0.125,0 0,0 0,0 0,0 0,0 0,0 0,-0.125 l 0,-0.999997 c 0,-0.125 0,-0.125 -0.125,0 0.125,0 0,0 0,0 z m -0.499998,-1.374997 c 0.124999,0 0.124999,0 0,0 0.124999,0 0.124999,0 0,0 l 0,-0.999997 c 0,0 0,0 0,0 0,0 0,0 0,0 0,0 0,0 -0.125,0 0,0 -0.125,0 -0.125,0 0,0 -0.124999,0 -0.124999,0 0,0 0,0 -0.125,0 0,0 0,0 0,0 0,0 0,0 0,0 l 0,0.874998 c 0,0 0,0 0,0 0,0 0,0 0,0 0,0 0,0 0.125,0 0,0 0.124999,0 0.124999,0 0.125,0.249999 0.25,0.249999 0.25,0.124999 0,0.125 0,0 0,0 z m 4.874988,-2.624993 c -1.749996,-1.749996 -4.499989,-1.749996 -6.249985,0 -1.749996,1.749995 -1.749996,4.499989 0,6.249984 1.749996,1.749996 4.499989,1.749996 6.249985,0 1.749995,-1.749995 1.749995,-4.499989 0,-6.249984 z m -5.499987,2.874993 c 0,0 -0.125,-0.125 -0.125,-0.125 0,0 0,-0.125 0,-0.125 l 0,-0.999997 c 0,0 0,-0.125 0,-0.125 0,0 0,-0.125 0.125,-0.125 0,0 0.125,-0.124999 0.125,-0.124999 0.125,0 0.125,0 0.374999,0 0.125,0 0.249999,0 0.374999,0 0.125,0 0.125,0.124999 0.125,0.124999 0,0 0.124999,0.125 0.124999,0.125 0,0 0,0.125 0,0.125 l 0,0.999997 c 0,0 0,0.125 0,0.125 0,0 0,0.125 -0.124999,0.125 0,0 -0.125,0.124999 -0.125,0.124999 -0.125,0 -0.125,0 -0.374999,0 -0.125,0 -0.249999,0 -0.374999,0 0,0 -0.125,-0.124999 -0.125,-0.124999 z m 1.749996,0.124999 c 0,0 0,0 0,0 -0.125,0 -0.125,0 0,0 l 0,0 c -0.125,0.125 -0.125,0.125 -0.125,0.125 l 0,1.874995 c 0,0.125 0,0.25 -0.125,0.25 -0.124999,0.125 -0.249999,0.125 -0.499998,0.125 -0.125,0 -0.25,0 -0.25,0 -0.124999,0 -0.124999,0 -0.124999,-0.125 0,0 -0.125,-0.125 -0.125,-0.125 0,0 0,-0.125 0,-0.125 l 0,-0.874997 c 0,0 0,0 0,0 l 0,0 c 0,-0.125 0,-0.125 0.125,-0.25 0,-0.124999 0.124999,-0.124999 0.249999,-0.124999 l 0,0 c 0,0 0.125,0 0.125,0 l 0.124999,0 c 0,0 0.125,0 0.125,0 0,0 0,0 0.125,0 0,0 0,0 0,0 0,0 0,0 0,0 l 0,0 0,0 c 0,0 0,0 0,0 l 0,-2.124995 c 0,-0.125 0,-0.25 0.124999,-0.25 0.125,-0.124999 0.25,-0.124999 0.499999,-0.124999 0.125,0 0.25,0 0.25,0 0.124999,0 0.124999,0 0.124999,0.124999 0,0 0.125,0.125 0.125,0.125 0,0 0,0.125 0,0.125 l 0,0.874998 c 0,0 0,0 0,0 l 0,0 c 0,0.124999 0,0.124999 -0.125,0.249999 0,0.125 -0.124999,0.125 -0.249999,0.125 l 0,0 c 0,0 -0.125,0 -0.125,0 l -0.124999,0 c 0,0.124999 0,0.124999 -0.125,0.124999 0,0 0,0 0,0 z m 1.249997,1.999995 c 0,0 0,0.125 0,0 0,0.125 0,0.25 -0.125,0.25 0,0 -0.125,0.125 -0.125,0.125 -0.124999,0 -0.124999,0 -0.374999,0 -0.124999,0 -0.249999,0 -0.374999,0 -0.124999,0 -0.124999,-0.125 -0.124999,-0.125 0,0 -0.125,-0.125 -0.125,-0.125 0,0 0,-0.125 0,-0.125 l 0,-0.999997 c 0,0 0,0 0,-0.125 0,0 0,-0.124999 0.125,-0.124999 0,0 0.124999,-0.125 0.124999,-0.125 0.125,0 0.125,0 0.374999,0 0.125,0 0.25,0 0.374999,0 0.125,0 0.125,0.125 0.125,0.125 0,0 0.125,0.124999 0.125,0.124999 0,0 0,0.125 0,0.125 l 0,0.999997 z m -0.125,-1.999995 c 0,0 0,-0.124999 0,0 -0.125,-0.124999 -0.125,-0.124999 -0.125,-0.124999 0,0 -0.124999,-0.125 0,-0.25 l 0,-0.999997 c 0,0 0,-0.125 0,-0.125 0,0 0,-0.125 0.125,-0.125 0,0 0.125,-0.124999 0.125,-0.124999 0.124999,0 0.124999,0 0.374999,0 0.125,0 0.249999,0 0.374999,0 0.125,0 0.125,0.124999 0.125,0.124999 0,0 0.124999,0.125 0.124999,0.125 0,0 0,0.125 0,0.125 l 0,0.124999 c 0,0 0,0.125 0,0.125 0,0 0,0.125 -0.124999,0.125 0,0 0,0 -0.125,0.125 0,0 0,0 -0.125,0 0,0 -0.124999,0 -0.124999,0 l -0.25,0 c 0,0 -0.125,0 -0.125,0 0,0 0,0.124999 0,0.124999 l 0,0.125 c 0,0 0,0.125 0,0.125 0,0 0,0 0,0 0,0 0,0 0,0 0,0 0,0 0.125,0 0,0 0,0 0.125,0 0,0 0.125,0 0.125,0 0,0 0,0 0.124999,0 0,0 0,0 0,-0.125 0,0 0,0 0,-0.125 l 0,0 0.25,0 0,0.125 c 0,0.125 0,0.125 0,0.125 0,0 -0.125,0.124999 -0.125,0.124999 0,0 -0.125,0 -0.125,0.125 -0.124999,0 -0.124999,0 -0.249999,0 -0.125,0 -0.125,0 -0.25,0 -0.124999,0.249999 -0.124999,0.249999 -0.249999,0.249999 z m 0.999998,0.874998 -0.25,0 0,0.999998 c 0,0 0,0 0,0 0,0 0,0 0,0 0,0 0,0 0.125,0 0,0 0.125,0 0.125,0 l 0,0 0,0.249999 0,0 c -0.125,0 -0.25,0 -0.374999,0 -0.125,0 -0.125,-0.125 -0.125,-0.125 0,0 -0.125,-0.124999 -0.125,-0.124999 0,0 0,-0.125 0,-0.125 l 0,-1.874995 0.374999,0 0,0.499998 0.25,0 0,0.499999 z m 1.374996,-0.874998 -0.374999,0 0,-1.374996 c 0,0 0,0 0,0 0,0 0,0 0,0 0,0 0,0 -0.125,0 0,0 -0.124999,0 -0.124999,0 0,0 -0.125,0 -0.125,0 0,0 -0.125,0 -0.125,0 0,0 0,0 0,0 0,0 0,0 0,0 l 0,1.374996 -0.374999,0 0,-1.374996 c 0,0 0,-0.125 0,-0.125 0,0 0,-0.125 0.125,-0.125 0,0 0.125,-0.124999 0.125,-0.124999 0.124999,0 0.124999,0 0.374999,0 0.124999,0 0.249999,0 0.374999,0 0.125,0 0.125,0.124999 0.125,0.124999 0,0 0.124999,0.125 0.124999,0.125 0,0 0,0.125 0,0.125 l 0,1.374996 z m 8.874978,-0.874997 c -0.499998,0 -1.624996,0 -1.749995,0 0,0.624998 0,1.249996 0,1.749995 0.624998,0 1.249997,0 1.749995,0 0,-0.624998 0,-1.249997 0,-1.749995 z m 3.624992,-2.749994 c 0,0.499999 0,1.624996 0,1.749996 0.624998,0 1.249996,0 1.749995,0 0,-0.624998 0,-1.249997 0,-1.749996 -0.499999,0 -1.124997,0 -1.749995,0 z m 1.874995,4.499989 c 0,-0.499999 0,-1.624996 0,-1.749995 -0.624999,0 -1.249997,0 -1.749996,0 0,0.624998 0,1.249996 0,1.749995 0.499999,0 1.124997,0 1.749996,0 z m -1.874995,0.874998 c 0,0.499999 0,1.624996 0,1.749996 0.624998,0 1.249996,0 1.749995,0 0,-0.624999 0,-1.249997 0,-1.749996 -0.499999,0 -1.124997,0 -1.749995,0 z m -3.624992,-3.624991 c 0,-0.624998 0,-1.624996 0,-1.749996 -0.624998,0 -1.249997,0 -1.749995,0 0,0.624999 0,1.249997 0,1.749996 0.499998,0 1.124997,0 1.749995,0 z m 0.999998,-1.749996 c 0,0.499999 0,1.624996 0,1.749996 0.624998,0 1.124997,0 1.749996,0 0,-0.624998 0,-1.249997 0,-1.749996 -0.624999,0 -1.249997,0 -1.749996,0 z m 0,7.249983 c 0.499999,0 1.624996,0 1.749996,0 0,-0.624999 0,-1.249997 0,-1.749996 -0.624999,0 -1.124998,0 -1.749996,0 0,0.499999 0,1.124997 0,1.749996 z m -2.374994,-1.624997 c -0.125,0 -0.125,0.125 -0.25,0.25 0,0.125 -0.124999,0.125 -0.124999,0.249999 0,0.125 0,0.25 0,0.25 0,0 0,0.124999 0,0.124999 0,0.125 0,0.25 0.124999,0.25 0.125,0.249999 0.374999,0.374999 0.624999,0.499999 0.125,0.124999 0.125,0 0.249999,0 0.125,0 0.125,0 0.25,0 0.249999,-0.125 0.374999,-0.25 0.499998,-0.375 0,-0.124999 0.125,-0.124999 0.125,-0.249999 0,-0.125 0,-0.249999 0,-0.374999 0,-0.125 -0.125,-0.249999 -0.249999,-0.374999 -0.125,-0.125 -0.25,-0.25 -0.374999,-0.25 -0.125,0 -0.25,-0.124999 -0.374999,0 -0.125,0 -0.125,0 -0.25,0 -0.125,-0.124999 -0.249999,-0.124999 -0.249999,0 z m 2.749993,-2.749993 c -0.125,0.125 -0.249999,0.125 -0.374999,0.374999 0,0 -0.125,0.125 0,0.25 0,0 0,0.124999 0,0.124999 0,0.125 0.125,0.374999 0.125,0.499999 0.249999,0.25 0.499998,0.374999 0.874998,0.374999 0.249999,0 0.374999,-0.124999 0.499998,-0.374999 0.125,-0.249999 0.25,-0.499999 0.125,-0.874998 0,-0.124999 -0.125,-0.374999 -0.249999,-0.374999 -0.125,-0.124999 -0.25,-0.124999 -0.374999,-0.124999 0,-0.125 -0.125,0 -0.25,0 -0.125,0 -0.125,0 -0.125,0 -0.124999,0 -0.249999,0 -0.249999,0.124999 z m 13.624967,4.37499 c 0,-0.125 0,-0.125 -0.125,-0.125 -0.25,-0.125 -0.499999,-0.25 -0.749998,-0.374999 0,0 -0.125,0 -0.125,-0.125 0,-0.249999 0,-0.624998 0,-0.874998 0,0 0,0 0,-0.125 0,0 0,0 0,0 0.249999,-0.124999 0.374999,-0.249999 0.374999,-0.499998 0.125,-0.25 0.125,-0.374999 0,-0.624999 0,-0.374999 -0.249999,-0.749998 -0.499999,-0.999997 -0.124999,-0.25 -0.374999,-0.374999 -0.624998,-0.499999 -0.25,-0.125 -0.374999,-0.125 -0.624999,-0.125 -0.249999,0.125 -0.499998,0.25 -0.624998,0.499999 -0.125,0.249999 -0.125,0.499999 0,0.749998 0.125,0.374999 0.249999,0.624999 0.374999,0.874998 0,0 0,0.125 0,0.125 0,0.249999 0,0.374999 0,0.624998 0,0 0,0 0,0.125 -0.374999,-0.25 -0.749998,-0.374999 -1.124997,-0.624999 0,-1.249997 0,-2.499993 0,-3.87499 -0.125,-0.125 -0.25,-0.125 -0.374999,-0.249999 -0.624999,1.124997 -0.749998,2.749993 0.124999,4.249989 0.874998,1.624996 2.499994,2.124995 3.624991,2.124995 0.375,0 0.375,-0.125 0.375,-0.249999 z M 43.84991,54.696094 c 0,0 0,0 0,0 0.374999,-0.25 0.749998,-0.374999 0.999997,-0.624999 0,0 0.125,0 0.125,0 0.874998,0.499999 1.624996,0.999998 2.499994,1.374997 0.249999,0.124999 0.499999,0.249999 0.749998,0.374999 0,0 0,0 0.125,0 0.124999,0 0.249999,-0.125 0.249999,-0.125 -0.624998,-1.124997 -2.124995,-2.124995 -3.99999,-1.999995 -1.499996,0.125 -2.749993,0.999998 -3.374992,1.999995 0.125,0 0.25,0.125 0.25,0.125 0,0 0,0 0.124999,0 0,0 0.125,-0.125 0.125,-0.125 0.249999,-0.125 0.374999,-0.249999 0.624998,-0.374999 0.25,0.125 0.624999,0.374999 0.874998,0.499999 0,0 0,0 0,0 0,0 0,0 0,0 0,0.249999 0.125,0.374999 0.25,0.624998 0.124999,0.125 0.249999,0.25 0.499998,0.374999 0.499999,0.25 0.999998,0.25 1.499997,0.125 0.249999,-0.125 0.499998,-0.249999 0.749998,-0.374999 0.249999,-0.374999 0.374999,-0.749998 0,-1.124997 -0.25,-0.25 -0.499999,-0.374999 -0.749998,-0.374999 -0.25,-0.125 -0.624999,-0.125 -0.999998,-0.125 0,0 -0.125,0 -0.125,0 -0.124999,0 -0.249999,-0.125 -0.499998,-0.249999 0,0 0,0 0,0 z m 4.874988,1.374996 c -0.125,0 -0.125,0.125 -0.25,0.125 -0.124999,0 -0.124999,0.125 -0.124999,0.125 0,0.249999 0,0.499998 0,0.874997 0,0 0,0.125 -0.125,0.125 -0.125,0.125 -0.249999,0.125 -0.499999,0.25 -0.125,0.124999 -0.249999,0.124999 -0.374999,0.249999 0,0 0,0 0,0 -0.125,-0.125 -0.374999,-0.125 -0.624998,-0.125 -0.25,0 -0.499999,0.125 -0.624999,0.25 -0.374999,0.249999 -0.624998,0.749998 -0.749998,1.249997 -0.125,0.249999 -0.125,0.499998 0,0.874997 0.125,0.374999 0.374999,0.624999 0.874998,0.499999 0.249999,0 0.499999,-0.125 0.624998,-0.249999 0.374999,-0.25 0.499999,-0.499999 0.749998,-0.874998 0,0 0,-0.125 0.125,-0.125 0.125,-0.124999 0.374999,-0.249999 0.499999,-0.374999 0,0 0,0 0.125,0 0,0.374999 0,0.874998 0,1.249997 -1.124998,0.624999 -2.249995,1.249997 -3.249992,1.874996 0,0.124999 0,0.249999 0,0.374999 1.124997,0 2.624993,-0.624999 3.499991,-2.124995 0.874998,-1.374997 0.749998,-3.124993 0.125,-4.24999 z m 20.12495,3.874991 1.749996,0 0,-3.374992 -1.749996,0 0,3.374992 z m -3.124992,-5.374987 0,7.249982 17.124958,0 0,-7.249982 -17.124958,0 z m 5.499986,5.374987 c 0,0.374999 -0.249999,0.624998 -0.624998,0.624998 l -1.749996,0 c -0.374999,0 -0.624998,-0.249999 -0.624998,-0.624998 l 0,-3.374992 c 0,-0.374999 0.249999,-0.624998 0.624998,-0.624998 l 1.749996,0 c 0.374999,0 0.624998,0.249999 0.624998,0.624998 l 0,3.374992 z m 3.374992,-0.499999 c 0,0.125 0,0.125 -0.125,0.249999 -0.124999,0.125 -0.124999,0.125 -0.249999,0.125 l -0.374999,0 c -0.125,0 -0.249999,0 -0.249999,-0.125 -0.125,-0.124999 -0.125,-0.124999 -0.125,-0.249999 l 0,-0.374999 c 0,-0.125 0,-0.125 0.125,-0.25 0.124999,-0.124999 0.124999,-0.124999 0.249999,-0.124999 l 0.374999,0 c 0.125,0 0.249999,0 0.249999,0.124999 0.125,0.125 0.125,0.125 0.125,0.25 l 0,0.374999 z m 5.124988,-1.499996 c 0,0.249999 0,0.374999 -0.125,0.499998 -0.125,0.125 -0.25,0.125 -0.499999,0.125 l -1.624996,0 0,1.374997 1.999995,0 c 0.125,0 0.25,0.124999 0.25,0.249999 0,0.249999 -0.125,0.249999 -0.25,0.249999 l -2.624993,0 0,-1.874995 c 0,-0.499999 0.249999,-0.624998 0.624998,-0.624998 l 1.624996,0 0,-1.374997 -1.999995,0 c -0.125,0 -0.249999,-0.125 -0.249999,-0.249999 0,-0.25 0.124999,-0.25 0.249999,-0.25 l 1.999995,0 c 0.249999,0 0.374999,0 0.499999,0.125 0.125,0.125 0.125,0.374999 0.125,0.499999 l 0,1.249997 z m -9.499977,-8.874979 -0.499999,0 c -0.125,0 -0.249999,0 -0.374999,0.125 -0.125,0.125 -0.249999,0.25 -0.249999,0.374999 l 0,1.124997 c 0,0.125 0,0.25 0.249999,0.375 0.125,0.124999 0.249999,0.124999 0.374999,0.124999 l 0.499999,0 c 0.125,0 0.249999,0 0.374999,-0.124999 0.125,-0.125 0.249999,-0.25 0.249999,-0.375 l 0,-1.124997 c 0,-0.124999 0,-0.249999 -0.249999,-0.374999 -0.125,-0.125 -0.125,-0.125 -0.374999,-0.125 z m -9.624976,-3.374991 0,7.249982 22.374945,0 0,-7.249982 -22.374945,0 z m 6.624983,2.624993 c 0,0.125 0,0.125 0,0.25 l -1.124997,2.874993 c 0,0.124999 -0.125,0.249999 -0.249999,0.249999 -0.125,0 -0.25,-0.125 -0.25,-0.249999 l -1.124997,-2.874993 c 0,-0.125 0,-0.125 0,-0.25 l 0,-0.874998 c 0,-0.249999 0.125,-0.249999 0.249999,-0.249999 0.125,0 0.25,0.125 0.25,0.249999 l 0,0.874998 0.874998,2.249995 0.874998,-2.249995 0,-0.999997 c 0,-0.25 0.124999,-0.25 0.249999,-0.25 0.125,0 0.249999,0.125 0.249999,0.25 l 0,0.999997 z m 4.12499,2.249995 c 0,0.374999 -0.125,0.499999 -0.374999,0.749998 -0.249999,0.249999 -0.374999,0.249999 -0.749998,0.249999 l -0.499999,0 c -0.374999,0 -0.499999,0 -0.749998,-0.249999 -0.249999,-0.249999 -0.374999,-0.374999 -0.374999,-0.749998 l 0,-0.999998 c 0,-0.374999 0.125,-0.499999 0.374999,-0.749998 0.249999,-0.249999 0.374999,-0.374999 0.749998,-0.374999 l 0.499999,0 c 0.374999,0 0.499999,0.125 0.749998,0.374999 0.249999,0.249999 0.374999,0.374999 0.374999,0.749998 l 0,0.999998 z m 3.624991,1.124997 -1.499996,0 c -0.125,0 -0.374999,0 -0.374999,-0.249999 0,-0.25 0.249999,-0.25 0.374999,-0.25 l 0.499999,0 0,-3.249992 -0.499999,0 c -0.125,0 -0.374999,0 -0.374999,-0.249999 0,-0.25 0.249999,-0.25 0.374999,-0.25 l 0.624998,0 c 0.374999,0 0.374999,0 0.374999,0.375 l 0,3.374991 0.375,0 c 0.249999,0 0.374999,0 0.374999,0.25 0.124999,0.249999 -0.125,0.249999 -0.25,0.249999 z m 4.749989,-0.374999 c -0.25,0.249999 -0.499999,0.249999 -0.749999,0.249999 l -0.249999,0 c -0.249999,0 -0.499999,-0.124999 -0.749998,-0.249999 -0.25,-0.249999 -0.25,-0.499999 -0.25,-0.749998 l 0,-1.499997 -0.124999,0 c -0.125,0 -0.374999,0 -0.374999,-0.249999 0,-0.249999 0.249999,-0.249999 0.374999,-0.249999 l 0.124999,0 0,-0.624999 c 0,-0.249999 0,-0.374999 0.25,-0.374999 0.249999,0 0.249999,0.25 0.249999,0.374999 l 0,0.624999 0.999998,0 c 0.249999,0 0.374999,0 0.374999,0.249999 0,0.249999 -0.25,0.249999 -0.374999,0.249999 l -0.999998,0 0,1.499997 c 0,0.374999 0,0.499999 0.374999,0.499999 l 0.25,0 c 0.249999,0 0.374999,0 0.374999,-0.25 0,-0.125 0.124999,-0.249999 0.249999,-0.249999 0.125,0 0.25,0.124999 0.25,0.249999 0,0.125 0.124999,0.499999 0,0.499999 z"
       class="st2"
       id="XMLID_4_" /></g></svg>