<?xml version="1.0" encoding="UTF-8" standalone="no"?>
<!-- Generator: Adobe Illustrator 19.0.0, SVG Export Plug-In . SVG Version: 6.00 Build 0)  -->

<svg
   xmlns:dc="http://purl.org/dc/elements/1.1/"
   xmlns:cc="http://creativecommons.org/ns#"
   xmlns:rdf="http://www.w3.org/1999/02/22-rdf-syntax-ns#"
   xmlns:svg="http://www.w3.org/2000/svg"
   xmlns="http://www.w3.org/2000/svg"
   xmlns:sodipodi="http://sodipodi.sourceforge.net/DTD/sodipodi-0.dtd"
   xmlns:inkscape="http://www.inkscape.org/namespaces/inkscape"
   version="1.1"
   id="Livello_1"
   x="0px"
   y="0px"
   viewBox="0 0 244.48818 76.181099"
   xml:space="preserve"
   inkscape:version="0.91 r13725"
   sodipodi:docname="board1.svg"
   width="69mm"
   height="21.5mm"><metadata
     id="metadata66"><rdf:RDF><cc:Work
         rdf:about=""><dc:format>image/svg+xml</dc:format><dc:type
           rdf:resource="http://purl.org/dc/dcmitype/StillImage" /><dc:title></dc:title></cc:Work></rdf:RDF></metadata><defs
     id="defs64" /><sodipodi:namedview
     pagecolor="#ffffff"
     bordercolor="#666666"
     borderopacity="1"
     objecttolerance="10"
     gridtolerance="10"
     guidetolerance="10"
     inkscape:pageopacity="0"
     inkscape:pageshadow="2"
     inkscape:window-width="1142"
     inkscape:window-height="706"
     id="namedview62"
     showgrid="false"
     units="mm"
     inkscape:zoom="2.0961145"
     inkscape:cx="116.88293"
     inkscape:cy="11.367073"
     inkscape:window-x="0"
     inkscape:window-y="23"
     inkscape:window-maximized="0"
     inkscape:current-layer="Livello_1" /><style
     type="text/css"
     id="style3">
	.st0{fill:#FFFFFF;}
	.st1{fill:none;stroke:#FF0000;stroke-width:0.25;stroke-miterlimit:10;}
	.st2{fill:none;stroke:#FF0000;stroke-width:0.2533;stroke-miterlimit:10;}
</style><g
     id="XMLID_2_"
     transform="matrix(1.2498762,0,0,1.2498762,-0.34982666,0.3884739)"><path
       id="XMLID_90_"
       d="m 194.1,1.4 c -42.5,0 -85,0 -127.5,0 l 0,7.3 -65.2,0 0,43.6 65.2,0 0,7.3 c 42.5,0 85,0 127.5,0 0.1,-1.2 0.1,-57.9 0,-58.2 z"
       inkscape:connector-curvature="0" /><path
       id="XMLID_89_"
       class="st0"
       d="m 172.5,24.5 c 3.6,0 7.2,0 10.8,0 0,-2 0,-4 0,-6.1 -4.8,0 -9.6,0 -14.3,0 0,3.6 0,7.2 0,10.8 -0.8,0 -1.5,0 -2.3,0 0,0.4 0,0.8 0,1.2 -2.4,0 -4.8,0 -7.2,0 0,-1.2 0,-2.4 0,-3.6 1,0 2,0 3,0 0,-0.4 0,-0.9 0,-1.3 -5.6,0 -11.1,0 -16.7,0 0,-2.2 0,-4.4 0,-6.6 -0.1,0 -0.2,0 -0.3,0 -0.1,0 -0.2,0 -0.3,0 0,-1.7 0,-3.4 0,-5 0.7,0 1.4,0 2.1,0 0,1.7 0,3.3 0,5 -0.2,0 -0.3,0 -0.5,0 0,0.2 -0.1,4.7 0,5.6 5.6,0 11.1,0 16.7,0 0,0.8 0,1.6 0,2.4 1,0 2,0 3.1,0 0,0.4 0,0.8 0,1.2 0.4,0 0.8,0 1.2,0 0,-3.6 0,-7.2 0,-10.8 5.5,0 11,0 16.5,0 0,2.7 0,5.5 0,8.2 -3.6,0 -7.2,0 -10.8,0 0,4.6 0,9.1 0,13.7 -2.3,0 -4.7,0 -7,0 0,0 0,0 0,0 0,0 0,0 0,0 0,0.5 0,1.1 0,1.6 -1,0 -1.9,0 -2.9,0 0,-1.4 0,-2.9 0,-4.3 1,0 1.9,0 2.9,0 0,0.5 0,1 0,1.6 2,0 4,0 6,0 0,-4.5 0,-9 0,-13.6 z"
       inkscape:connector-curvature="0"
       style="fill:#ffffff" /><path
       id="XMLID_88_"
       class="st0"
       d="m 128.6,9.8 c 0,0.1 0,0.3 0,0.4 16.8,0 33.6,0 50.4,0 0,0.7 0,1.5 0,2.2 1,0 2,0 3.1,0 0,1.2 0,2.4 0,3.6 -2.4,0 -4.8,0 -7.2,0 0,-1.2 0,-2.4 0,-3.6 0,0 0,0 0,0 0,0 0,0 0,0 1,0 2,0 3,0 0,0 0,0 0,0 0,-0.4 0,-0.7 0,-1.1 -16.4,0 -32.9,0 -49.3,0 0,1.1 0,2.2 0,3.3 -1.5,0 -3.1,0 -4.6,0 0,-1.6 0,-3.2 0,-4.9 1.5,0.1 3,0.1 4.6,0.1 z"
       inkscape:connector-curvature="0"
       style="fill:#ffffff" /><path
       id="XMLID_87_"
       class="st0"
       d="m 176.4,41.3 c 0,1.6 0,3.3 0,4.9 -1.5,0 -3,0 -4.6,0 0,-0.6 0,-1.3 0,-1.9 -3.8,0 -7.6,0 -11.4,0 0,-1.1 0,-2.3 0,-3.4 -0.2,0 -0.3,0 -0.5,0 -0.1,0 -0.3,0 -0.5,0 0,-0.5 0,-1.1 0,-1.6 -5.8,0 -11.6,0 -17.4,0 0,-1 0,-2 0,-3.1 -0.2,0 -0.3,0 -0.5,0 0,-1.7 0,-3.3 0,-5 0.7,0 1.4,0 2.1,0 0,0.2 0.1,4.3 0,5 -0.2,0 -0.4,0 -0.5,0 0,0.7 0,1.3 0,2 5.4,0 10.9,0 16.3,0 0,-0.5 0,-1 0,-1.5 0.2,0 2,-0.1 2.8,0 0,1.4 0,2.8 0,4.3 -0.3,0 -0.5,0 -0.8,0 0,0.8 0,1.5 0,2.3 3.4,0 6.9,0 10.3,0 0,-0.6 0,-1.3 0,-1.9 1.6,-0.1 3.1,-0.1 4.7,-0.1 z"
       inkscape:connector-curvature="0"
       style="fill:#ffffff" /><path
       id="XMLID_86_"
       class="st0"
       d="m 150.4,28.1 c 0,1 0,2 0,3.1 0.2,0 0.4,0 0.6,0 0,1.7 0,3.3 0,5 -0.7,0 -1.4,0 -2.1,0 0,-1.7 0,-3.3 0,-5 0.2,0 0.3,0 0.5,0 0,-0.7 0,-1.3 0,-2 -0.8,0 -1.6,0 -2.5,0 0,0.7 0,1.3 0,2 0.2,0 0.3,0 0.5,0 0,1.7 0,3.3 0,5 -0.7,0 -1.4,0 -2.1,0 0,-1.7 0,-3.3 0,-5 0.2,0 0.4,0 0.6,0 0,-0.7 0,-1.3 0,-2 -6.7,0 -13.3,0 -20,0 0,0.6 0,1.2 0,1.9 -1.6,0 -3.1,0 -4.7,0 0,-1.6 0,-3.2 0,-4.9 1.5,0 3.1,0 4.6,0 0,0 0,0 0,0 0,0 0,0 0,0 0,0.6 0,1.2 0,1.9 8.1,0 16.3,0 24.6,0 z"
       inkscape:connector-curvature="0"
       style="fill:#ffffff" /><path
       id="XMLID_85_"
       class="st0"
       d="m 154.5,36.2 c -0.7,0 -1.4,0 -2.2,0 0,-1.7 0,-3.3 0,-5 0.7,0 1.4,0 2.1,0 0,0.7 0,1.3 0,2 5.2,0 10.4,0 15.7,0 0,-4.1 0,-8.2 0,-12.2 1.5,0 3.1,0 4.6,0 0,-0.4 0,-0.8 0,-1.2 2.4,0 4.8,0 7.2,0 0,1.2 0,2.4 0,3.6 -2.4,0 -4.8,0 -7.2,0 0,-0.4 0,-0.8 0,-1.2 -1.2,0 -2.4,0 -3.6,0 0,4.1 0,8.1 0,12.2 0,0 0,0 0,0 0,0 0,0 0,0 -5.6,0 -11.1,0 -16.7,0 0.1,0.5 0.1,1.1 0.1,1.8 z"
       inkscape:connector-curvature="0"
       style="fill:#ffffff" /><path
       id="XMLID_84_"
       class="st0"
       d="m 150.4,20.9 c 3,0 6,0 9,0 0,-0.4 0,-0.8 0,-1.2 2.4,0 4.8,0 7.2,0 0,1.2 0,2.4 0,3.6 -2.4,0 -4.8,0 -7.2,0 0,-0.4 0,-0.8 0,-1.2 -3.4,0 -6.7,0 -10.1,0 0,0 0,0 0,0 0,0 0,0 0,0 0,-1 0,-2 0,-3 -0.2,0 -0.3,0 -0.5,0 0,-1.7 0,-3.4 0,-5.1 0.7,0 1.4,0 2.1,0 0,1.7 0,3.4 0,5 -0.2,0 -0.4,0 -0.5,0 0,0.6 0,1.3 0,1.9 z"
       inkscape:connector-curvature="0"
       style="fill:#ffffff" /><path
       id="XMLID_83_"
       class="st0"
       d="m 134.4,13.9 c 0.7,0 1.4,0 2.1,0 0,1.7 0,3.3 0,5 -0.2,0 -0.4,0 -0.6,0 0,1.3 0,2.5 0,3.8 -3.4,0 -6.8,0 -10.2,0 0,0.6 0,1.2 0,1.9 -1.5,0 -3.1,0 -4.6,0 0,-0.2 -0.1,-4.1 0,-4.9 1.5,0 3.1,0 4.6,0 0,0.6 0,1.3 0,1.9 3.1,0 6.1,0 9.1,0 0,-0.9 0,-1.8 0,-2.7 -0.2,0 -0.3,0 -0.5,0 0.1,-1.6 0.1,-3.3 0.1,-5 z"
       inkscape:connector-curvature="0"
       style="fill:#ffffff" /><path
       id="XMLID_82_"
       class="st0"
       d="m 100.9,13.6 c 0,-0.6 0,-1.2 0,-1.9 -0.4,0 -0.8,0 -1.2,0 0,0.6 0,1.2 0,1.7 -1.6,0 -3.2,0 -4.9,0 0,-1.5 0,-3 0,-4.6 0.2,0 4,-0.1 4.9,0 0,0.6 0,1.1 0,1.7 0.4,0 0.8,0 1.3,0 0,-0.6 0,-1.3 0,-1.9 1.5,0 3.1,0 4.6,0 0,1.6 0,3.2 0,4.9 -1.6,0.1 -3.1,0.1 -4.7,0.1 z"
       inkscape:connector-curvature="0"
       style="fill:#ffffff" /><path
       id="XMLID_81_"
       class="st0"
       d="m 166.6,12.5 c 0,1.2 0,2.4 0,3.6 -0.1,0 -0.2,0 -0.3,0 -2.4,0 -4.7,0 -7.1,0 -0.4,0 -0.6,-0.1 -0.9,-0.3 -0.2,-0.2 -0.4,-0.4 -0.5,-0.6 -0.1,-0.1 -0.1,-0.2 -0.1,-0.3 -1.1,0 -2.1,0 -3.2,0 0,1.4 0,2.7 0,4.1 -0.7,0 -1.4,0 -2.2,0 0,-1.7 0,-3.3 0,-5 0.2,0 0.4,0 0.5,0 0,-0.1 0,-0.1 0,-0.2 1.6,0 3.2,0 4.7,0 0,-0.1 0.1,-0.2 0.1,-0.2 0.2,-0.4 0.5,-0.7 0.9,-0.9 0.2,-0.1 0.4,-0.1 0.6,-0.1 2.6,-0.1 5,-0.1 7.5,-0.1 z"
       inkscape:connector-curvature="0"
       style="fill:#ffffff" /><path
       id="XMLID_80_"
       class="st0"
       d="m 140.1,13.9 c 0,1.7 0,3.4 0,5 -0.7,0 -1.4,0 -2.1,0 0,-0.2 -0.1,-4.1 0,-5 0.6,0 1.3,0 2.1,0 z"
       inkscape:connector-curvature="0"
       style="fill:#ffffff" /><path
       id="XMLID_79_"
       class="st0"
       d="m 141.6,18.9 c 0,-1.7 0,-3.3 0,-5 0.7,0 1.4,0 2.1,0 0,0.2 0.1,4 0,5 -0.7,0 -1.4,0 -2.1,0 z"
       inkscape:connector-curvature="0"
       style="fill:#ffffff" /><g
       id="XMLID_69_"><path
         id="XMLID_78_"
         class="st0"
         d="m 72.6,10.5 c -0.5,0 -1,0 -1.5,0 0,-0.5 0,-1 0,-1.4 0.1,0 1.1,0 1.5,0 0,0.5 0,1 0,1.4 z"
         inkscape:connector-curvature="0"
         style="fill:#ffffff" /><path
         id="XMLID_77_"
         class="st0"
         d="m 77,6.9 c 0,0.5 0,1 0,1.5 -0.5,0 -1,0 -1.4,0 0,-0.1 0,-1.1 0,-1.5 0.4,0 0.9,0 1.4,0 z"
         inkscape:connector-curvature="0"
         style="fill:#ffffff" /><path
         id="XMLID_76_"
         class="st0"
         d="m 75.5,10.5 c 0,-0.5 0,-1 0,-1.5 0.5,0 1,0 1.4,0 0,0.1 0,1 0,1.5 -0.4,0 -0.9,0 -1.4,0 z"
         inkscape:connector-curvature="0"
         style="fill:#ffffff" /><path
         id="XMLID_75_"
         class="st0"
         d="m 77,11.3 c 0,0.5 0,1 0,1.5 -0.5,0 -1,0 -1.4,0 0,-0.1 0,-1 0,-1.5 0.4,0 0.9,0 1.4,0 z"
         inkscape:connector-curvature="0"
         style="fill:#ffffff" /><path
         id="XMLID_74_"
         class="st0"
         d="m 71.1,8.4 c 0,-0.5 0,-1 0,-1.5 0.5,0 1,0 1.4,0 0,0.1 0,1 0,1.5 -0.4,0 -0.9,0 -1.4,0 z"
         inkscape:connector-curvature="0"
         style="fill:#ffffff" /><path
         id="XMLID_73_"
         class="st0"
         d="m 74.8,6.9 c 0,0.5 0,1 0,1.5 -0.5,0 -0.9,0 -1.4,0 0,-0.1 0,-1.1 0,-1.5 0.4,0 0.9,0 1.4,0 z"
         inkscape:connector-curvature="0"
         style="fill:#ffffff" /><path
         id="XMLID_72_"
         class="st0"
         d="m 73.4,11.3 c 0.5,0 0.9,0 1.4,0 0,0.5 0,1 0,1.4 -0.1,0 -1,0 -1.4,0 0,-0.5 0,-0.9 0,-1.4 z"
         inkscape:connector-curvature="0"
         style="fill:#ffffff" /><path
         id="XMLID_71_"
         class="st0"
         d="m 71.7,11.3 c 0,0 0.1,0 0.2,0 0.1,0 0.2,0 0.3,0 0.1,0 0.2,0.1 0.3,0.2 0.1,0.1 0.2,0.2 0.2,0.3 0,0.1 0,0.2 0,0.3 0,0.1 0,0.2 -0.1,0.2 -0.1,0.2 -0.2,0.3 -0.4,0.3 -0.1,0 -0.1,0.1 -0.2,0 -0.1,0 -0.1,0 -0.2,0 -0.2,0 -0.4,-0.2 -0.5,-0.4 0,-0.1 -0.1,-0.1 -0.1,-0.2 0,0 0,-0.1 0,-0.1 0.1,-0.1 0,-0.1 0,-0.2 0,-0.1 0.1,-0.1 0.1,-0.2 0,-0.1 0.1,-0.1 0.2,-0.2 0,0.1 0.1,0 0.2,0 z"
         inkscape:connector-curvature="0"
         style="fill:#ffffff" /><path
         id="XMLID_70_"
         class="st0"
         d="m 73.9,9.1 c 0,0 0.1,0 0.1,0 0,0 0.1,0 0.2,0 0.1,0 0.2,0.1 0.3,0.1 0.1,0.1 0.2,0.2 0.2,0.3 0.1,0.2 0,0.5 -0.1,0.7 -0.1,0.1 -0.2,0.2 -0.4,0.3 -0.3,0.1 -0.6,0 -0.7,-0.3 -0.1,-0.1 -0.1,-0.2 -0.1,-0.4 0,0 0,-0.1 0,-0.1 0,-0.1 0,-0.2 0.1,-0.3 0.1,-0.1 0.1,-0.2 0.3,-0.3 -0.1,0.1 0,0.1 0.1,0 z"
         inkscape:connector-curvature="0"
         style="fill:#ffffff" /></g><g
       id="XMLID_43_"><path
         id="XMLID_60_"
         class="st0"
         d="m 114,49 0,-0.1 2,0 0,0.1 -2,0 z m 4.7,0.1 0,0 -0.6,0.1 c -0.5,1.4 -1.1,2.9 -1.6,4.3 l -0.3,0 -1.4,-4.3 -0.8,-0.1 0,-0.1 0.9,0 1.4,4.3 0.1,0 1.6,-4.3 0.7,0 z m -4.2,0.2 0.2,0 1.4,4.2 -0.2,0 -1.4,-4.2 z m 0.5,-0.2 0.2,0 1.3,3.9 -0.1,0.3 -1.4,-4.2 z m 1,0 0,0 -0.6,0.1 -0.1,-0.1 0.7,0 z m 2.7,-0.1 -0.8,0 -1.4,3.9 -0.1,-0.2 1.4,-3.8 0.9,0 0,0.1 z m -1,-0.2 -0.1,0.1 -0.8,0 0,-0.1 0.9,0 z m -0.9,0.3 0,0 0.8,-0.1 -0.1,0.1 -0.7,0 z"
         inkscape:connector-curvature="0"
         style="fill:#ffffff" /><path
         id="XMLID_55_"
         class="st0"
         d="m 121.5,51.8 c 0,1.1 -0.6,1.8 -1.6,1.8 -1,0 -1.6,-0.7 -1.6,-1.8 0,-1.1 0.6,-1.7 1.6,-1.7 1,0 1.6,0.7 1.6,1.7 z m -0.2,0 c 0,-0.8 -0.4,-1.6 -1.4,-1.6 -1,0 -1.4,0.8 -1.4,1.6 0,0.9 0.5,1.7 1.4,1.7 0.9,0 1.4,-0.8 1.4,-1.7 z m -1.6,-1.5 c 0.7,0 1.2,0.6 1.2,1.4 0,0.5 -0.1,1 -0.4,1.2 0.2,-0.3 0.2,-0.8 0.2,-1.1 0,-0.8 -0.3,-1.4 -1,-1.4 -0.7,0 -1,0.6 -1,1.4 0,0.5 0.1,1.1 0.6,1.4 -0.6,-0.3 -0.8,-0.9 -0.8,-1.5 0,-0.8 0.5,-1.4 1.2,-1.4 z m 0.3,3.1 c -0.7,0 -1.2,-0.6 -1.2,-1.5 0,-0.5 0.1,-0.9 0.4,-1.1 -0.2,0.3 -0.2,0.7 -0.2,1 0,0.9 0.3,1.5 1,1.5 0.7,0 1,-0.7 1,-1.5 0,-0.5 -0.1,-1.1 -0.6,-1.4 0.5,0.2 0.7,0.8 0.7,1.4 0.1,0.9 -0.4,1.6 -1.1,1.6 z"
         inkscape:connector-curvature="0"
         style="fill:#ffffff" /><path
         id="XMLID_50_"
         class="st0"
         d="m 121.7,53.3 0,0 0.6,-0.1 0,-4.1 0.2,0 0,4.2 -0.8,0 z m 1.8,0.1 0,0.1 -1.8,0 0,-0.1 1.8,0 z m -1.8,-4.7 0,0 1.3,-0.1 0,4.5 -0.2,0 0,-4.3 -1.1,0 z m 1,0.1 0,4.3 0.8,0.1 0,0.1 -0.9,0 0,-4.3 -0.9,0 0,-0.1 1,0 z"
         inkscape:connector-curvature="0"
         style="fill:#ffffff" /><path
         id="XMLID_44_"
         class="st0"
         d="m 123.7,50.2 0.7,-0.1 0,0.2 -0.7,-0.1 0,0 z m 2.1,3.2 c -0.1,0.1 -0.3,0.2 -0.6,0.2 -0.5,0 -0.9,-0.2 -0.9,-1 l 0,-2.1 -0.6,0 0,-0.2 0.7,0 0,2.3 c 0,0.6 0.3,0.8 0.7,0.8 0.3,0 0.4,-0.1 0.6,-0.2 l 0.1,0.2 z m -1.1,-4.4 0,3.6 c 0,0.4 0.1,0.6 0.3,0.7 -0.3,-0.1 -0.5,-0.2 -0.5,-0.7 l 0,-2.6 0.2,-1 0,0 z m 0.3,0 0,1.1 0.7,0 0,0.2 -0.9,0 0,-1.3 0.2,0 z m 0.7,1.5 -0.7,0 0,2.2 c 0,0.4 0.1,0.6 0.3,0.6 0.1,0 0.3,-0.1 0.4,-0.2 l 0,0.1 c -0.1,0.1 -0.2,0.2 -0.4,0.2 -0.3,0 -0.4,-0.2 -0.4,-0.7 l 0,-2.3 0.9,0 0,0.1 z"
         inkscape:connector-curvature="0"
         style="fill:#ffffff" /></g><g
       id="XMLID_39_"><path
         id="XMLID_42_"
         class="st0"
         d="m 107.6,55 c -0.9,0 -2.2,-0.5 -3,-1.8 -0.7,-1.2 -0.6,-2.6 -0.1,-3.5 0.1,0.1 0.2,0.1 0.3,0.2 0,1 0,2.1 0,3.1 0.3,0.2 0.6,0.3 0.9,0.5 0,0 0,0 0,-0.1 0,-0.2 0,-0.4 0,-0.5 0,0 0,-0.1 0,-0.1 -0.2,-0.2 -0.3,-0.5 -0.3,-0.7 0,-0.2 0,-0.4 0,-0.6 0.1,-0.2 0.2,-0.4 0.5,-0.5 0.2,0 0.3,0 0.5,0.1 0.2,0.1 0.4,0.3 0.6,0.4 0.2,0.3 0.3,0.5 0.4,0.9 0,0.2 0,0.4 0,0.5 -0.1,0.2 -0.2,0.3 -0.3,0.4 0,0 0,0 0,0 0,0 0,0 0,0.1 0,0.2 0,0.5 0,0.7 0,0 0,0.1 0.1,0.1 0.2,0.1 0.4,0.2 0.6,0.4 0,0 0.1,0.1 0.1,0.1 -0.3,0.1 -0.3,0.2 -0.3,0.3 z"
         inkscape:connector-curvature="0"
         style="fill:#ffffff" /><path
         id="XMLID_41_"
         class="st0"
         d="m 106.9,48.7 c 0.2,0.1 0.3,0.2 0.5,0.3 0,0 0.1,0 0.1,0 0.3,0 0.5,0 0.8,0.1 0.2,0.1 0.4,0.2 0.6,0.4 0.2,0.3 0.2,0.6 0,0.9 -0.2,0.2 -0.4,0.3 -0.6,0.3 -0.4,0.1 -0.8,0.1 -1.2,-0.1 -0.1,-0.1 -0.3,-0.2 -0.4,-0.3 -0.1,-0.1 -0.2,-0.3 -0.2,-0.5 0,0 0,0 0,0 0,0 0,0 0,0 -0.2,-0.1 -0.5,-0.3 -0.7,-0.4 -0.2,0.1 -0.4,0.2 -0.5,0.3 0,0 -0.1,0.1 -0.1,0.1 0,0 0,0 -0.1,0 -0.1,0 -0.2,-0.1 -0.3,-0.1 0.5,-0.8 1.5,-1.6 2.7,-1.7 1.6,-0.1 2.8,0.8 3.3,1.7 -0.1,0.1 -0.2,0.1 -0.3,0.1 0,0 -0.1,0 -0.1,0 -0.2,-0.1 -0.4,-0.2 -0.6,-0.3 -0.7,-0.4 -1.3,-0.8 -2,-1.2 0,0 -0.1,0 -0.1,0 -0.2,0 -0.5,0.2 -0.8,0.4 0,-0.1 0,-0.1 0,0 0,0 0,0 0,0 z"
         inkscape:connector-curvature="0"
         style="fill:#ffffff" /><path
         id="XMLID_40_"
         class="st0"
         d="m 110.8,53.3 c -0.7,1.2 -2,1.7 -2.9,1.7 0,-0.1 0,-0.2 0,-0.3 0.9,-0.5 1.8,-1 2.7,-1.6 0,-0.3 0,-0.7 0,-1 0,0 0,0 -0.1,0 -0.1,0.1 -0.3,0.2 -0.4,0.3 0,0 -0.1,0.1 -0.1,0.1 -0.1,0.3 -0.3,0.6 -0.6,0.8 -0.2,0.1 -0.3,0.2 -0.5,0.2 -0.4,0 -0.6,-0.2 -0.7,-0.5 -0.1,-0.2 -0.1,-0.5 0,-0.7 0.1,-0.4 0.3,-0.7 0.6,-1 0.2,-0.1 0.3,-0.2 0.5,-0.2 0.2,0 0.3,0 0.5,0.1 0,0 0,0 0,0 0.1,-0.1 0.2,-0.1 0.3,-0.2 0.1,-0.1 0.3,-0.1 0.4,-0.2 0,0 0.1,0 0.1,-0.1 0,-0.2 0,-0.5 0,-0.7 0,-0.1 0,-0.1 0.1,-0.1 0.1,0 0.1,-0.1 0.2,-0.1 0.6,0.9 0.6,2.3 -0.1,3.5 z"
         inkscape:connector-curvature="0"
         style="fill:#ffffff" /></g><g
       id="XMLID_12_"><g
         id="XMLID_35_"><path
           id="XMLID_36_"
           class="st0"
           d="m 98,55 c -1,0 -1.9,-0.4 -2.7,-1.1 l 0,0 c -0.7,-0.7 -1.1,-1.7 -1.1,-2.7 0,-1 0.4,-1.9 1.1,-2.6 1.4,-1.5 3.8,-1.5 5.3,0 1.5,1.5 1.5,3.8 0.1,5.3 C 99.9,54.6 99,55 98,55 c 0,0 0,0 0,0 z m -0.1,-7.2 c -0.9,0 -1.8,0.3 -2.4,1 -0.6,0.6 -1,1.5 -1,2.4 0,0.9 0.4,1.8 1,2.5 l 0,0 c 0.7,0.7 1.5,1 2.5,1 0,0 0,0 0,0 0.9,0 1.8,-0.4 2.4,-1 1.3,-1.3 1.3,-3.5 0,-4.9 -0.7,-0.7 -1.6,-1 -2.5,-1 z"
           inkscape:connector-curvature="0"
           style="fill:#ffffff" /></g><g
         id="XMLID_13_"><g
           id="XMLID_33_"><path
             id="XMLID_34_"
             class="st0"
             d="m 99.3,50 c 0,0 0,0 0,0 0,-0.1 0,-0.2 0.1,-0.2 0,0 0.1,-0.1 0.2,-0.1 0.1,0 0.2,0 0.3,0 0.1,0 0.2,0 0.3,0 0.1,0 0.1,0.1 0.1,0.1 0,0 0.1,0.1 0.1,0.1 0,0 0,0.1 0,0.1 l 0,1.1 -0.4,0 0,-1.1 c 0,0 0,0 0,-0.1 0,0 0,0 0,0 0,0 0,0 -0.1,0 0,0 -0.1,0 -0.1,0 -0.1,0 -0.1,0 -0.1,0 0,0 -0.1,0 -0.1,0 0,0 0,0 0,0 0,0 0,0 0,0 l 0,1.1 -0.3,0 0,-1 0,0 z"
             inkscape:connector-curvature="0"
             style="fill:#ffffff" /></g><g
           id="XMLID_31_"><path
             id="XMLID_32_"
             class="st0"
             d="m 98.6,51.3 0.3,0 0,0.4 0.2,0 0,0.2 -0.2,0 0,0.9 c 0,0 0,0 0,0.1 0,0 0,0 0,0 0,0 0,0 0.1,0 0,0 0.1,0 0.1,0 l 0,0 0,0.2 0,0 c -0.1,0 -0.2,0 -0.3,0 -0.1,0 -0.1,-0.1 -0.2,-0.1 0,0 -0.1,-0.1 -0.1,-0.1 0,0 0,-0.1 0,-0.1 l 0.1,-1.5 z"
             inkscape:connector-curvature="0"
             style="fill:#ffffff" /></g><g
           id="XMLID_27_"><path
             id="XMLID_28_"
             class="st0"
             d="m 98.4,50.1 0,0.2 c 0,0 0,0 0,0 0,0 0,0 0.1,0 0.1,0 0,0 0,0 l 0.2,0 c 0,0 0.1,0 0.1,0 0,0 0,-0.1 0,-0.1 l 0,-0.1 c 0,0 0,0 0,0 0,0 0,0 0,-0.1 0,0 0,0 -0.1,0 0,0 -0.1,0 -0.1,0 -0.1,0 -0.1,0 -0.1,0 0,-0.1 -0.1,0 -0.1,0.1 0,-0.1 0,-0.1 0,0 0,-0.1 0,-0.1 0,0 z M 98.2,51 c 0,-0.1 -0.1,-0.1 -0.1,-0.2 l 0,-0.8 c 0,0 0,-0.1 0,-0.1 0,0 0,-0.1 0.1,-0.1 0,0 0.1,-0.1 0.2,-0.1 0.1,0 0.2,0 0.3,0 0.1,0 0.2,0 0.3,0 0.1,0 0.1,0.1 0.1,0.1 0,0 0.1,0.1 0.1,0.1 0,0 0,0.1 0,0.1 l 0,0.1 c 0,0 0,0.1 0,0.1 0,0 0,0.1 -0.1,0.1 0,0 0,0 -0.1,0.1 0,0 -0.1,0 -0.1,0 0,0 -0.1,0 -0.1,0 l -0.2,0 c 0,0 -0.1,0 -0.1,0.1 0,0 -0.1,0.1 -0.1,0.1 l 0,0.1 c 0,0 0,0.1 0,0.1 0,0 0,0 0,0 0,0 0,0 0,0 0,0 0,0 0.1,0 0,0 0.1,0 0.1,0 0,0 0.1,0 0.1,0 0,0 0.1,0 0.1,0 0,0 0,0 0,-0.1 0,0 0,-0.1 0,-0.1 l 0,0 0.3,0 0,0.1 c 0,0.1 0,0.1 0,0.1 0,0.1 -0.1,0.1 -0.1,0.1 0,0 -0.1,0 -0.1,0.1 -0.1,0 -0.1,0 -0.2,0 -0.1,0 -0.1,0 -0.2,0 0,0 -0.1,0 -0.1,0 -0.1,0.1 -0.1,0.1 -0.2,0 0,0 0,0 0,0 z"
             inkscape:connector-curvature="0"
             style="fill:#ffffff" /></g><g
           id="XMLID_23_"><path
             id="XMLID_24_"
             class="st0"
             d="m 97.7,52.1 0,0.7 c 0,0 0,0 0,0 0,0 0,0 0,0 0,0 0,0 0.1,0 0,0 0.1,0 0.1,0 0.1,0 0.1,0 0.1,0 0,0 0.1,0 0.1,0 0,0 0,0 0,0 0,0 0,0 0,0 l 0,-0.8 c 0,0 0,0 0,-0.1 0,0 0,0 0,0 0,0 0,0 -0.1,0 0,0 -0.1,0 -0.1,0 -0.1,0 -0.1,0 -0.1,0 0,0 0,0 -0.1,0.2 0,-0.1 0,-0.1 0,0 0,-0.1 0,-0.1 0,0 z M 97.5,53 c 0,0 -0.1,-0.1 -0.1,-0.1 0,0 0,-0.1 0,-0.1 l 0,-0.8 c 0,0 0,-0.1 0,-0.1 0,0 0,-0.1 0.1,-0.1 0,0 0.1,-0.1 0.2,-0.1 0.1,0 0.2,0 0.3,0 0.1,0 0.2,0 0.3,0 0.1,0 0.1,0.1 0.1,0.1 0,0 0.1,0.1 0.1,0.1 0,0 0,0.1 0,0.1 l 0,0.8 c 0,0 0,0.1 0,0.1 0,0 0,0.1 -0.1,0.1 0,0 -0.1,0.1 -0.1,0.1 -0.1,0 -0.2,0 -0.3,0 -0.1,0 -0.2,0 -0.3,0 -0.1,0 -0.1,0 -0.2,-0.1 z"
             inkscape:connector-curvature="0"
             style="fill:#ffffff" /></g><g
           id="XMLID_18_"><path
             id="XMLID_19_"
             class="st0"
             d="m 97.3,50.9 c 0,0 0,0 0,0 0.1,0 0.1,0 0.1,-0.1 0,0 0.1,0 0.1,0 0,0 0.1,0 0.1,0 0,0 0,0 0.1,0 0,0 0,0 0,-0.1 0,0 0,0 0,-0.1 l 0,-0.6 c 0,0 0,0 0,-0.1 0,0 0,0 0,-0.1 0,0 0,0 -0.1,0 0,0 -0.1,0 -0.1,0 0,0 -0.1,0 -0.1,0 0,0 0,0 -0.1,0 0,0 0,0 0,0 0,0 0,0 0,0.1 l 0,1 0,0 z m -0.7,1.9 c 0,0 0,0 0,0 0,0.1 0,0.1 0.1,0.1 0,0 0,0 0.1,0 0,0 0.1,0 0.1,0 0,0 0.1,0 0.1,0 0,0 0,0 0.1,0 0,0 0,0 0,-0.1 0,0 0,0 0,-0.1 l 0,-0.9 c 0,0 0,0 0,0 0,0 -0.1,0 -0.1,0 0,0 -0.1,0 -0.1,0 0,0 -0.1,0 -0.1,0 0,0 0,0 -0.1,0 0,0 0,0 0,0.1 0,0 0,0 0,0.1 l -0.1,0.8 0,0 z m -0.3,-0.9 c 0,-0.1 0.1,-0.1 0.2,-0.1 l 0,0 c 0,0 0.1,0 0.1,0 l 0.1,0 c 0,0 0.1,0 0.1,0 0,0 0,0 0.1,0 0,0 0,0 0,0 0,0 0,0 0,0 l 0,0 0,0 c 0,0 0,0 0,0 l 0,-1.5 c 0,-0.1 0,-0.2 0.1,-0.3 0.1,-0.1 0.2,-0.1 0.4,-0.1 0.1,0 0.2,0 0.2,0 0.1,0 0.1,0 0.2,0.1 0,0 0.1,0.1 0.1,0.1 0,0 0,0.1 0,0.1 l 0,0.7 0,0 0,0 c 0,0.1 0,0.1 -0.1,0.2 0,0.1 -0.1,0.1 -0.2,0.1 l 0,0 c 0,0 -0.1,0 -0.1,0 l -0.1,0 c 0,0 -0.1,0 -0.1,0 0,0 -0.1,0 -0.1,0 0,0 0,0 0,0 0,0 0,0 0,0 l 0,0 c 0,0 0,0 0,0 l 0,1.5 c 0,0.1 0,0.2 -0.1,0.3 -0.1,0.1 -0.2,0.1 -0.4,0.1 -0.1,0 -0.2,0 -0.2,0 -0.1,0 -0.1,0 -0.2,-0.1 0,0 -0.1,-0.1 -0.1,-0.1 0,0 0,-0.1 0,-0.1 l 0,-0.7 c 0,0 0,0 0,0 l 0,0 C 96.3,52 96.3,52 96.3,51.9 Z"
             inkscape:connector-curvature="0"
             style="fill:#ffffff" /></g><g
           id="XMLID_14_"><path
             id="XMLID_15_"
             class="st0"
             d="m 96.1,50.9 c 0.1,0 0.1,0 0,0 0.1,0 0.1,0.1 0.2,0.1 0.1,0 0.1,0 0.1,0 0,0 0.1,0 0.1,0 0,0 0,0 0,0 0,0 0,0 0,0 l 0,-0.7 c 0,0 0,0 0,0 0,0 0,0 0,0 0,0 0,0 -0.1,0 0,0 -0.1,0 -0.1,0 0,0 -0.1,0 -0.1,0 0,0 0,0 -0.1,0 0,0 0,0 0,0.1 0,0 0,0 0,0 l 0,0.5 c 0,-0.1 0,-0.1 0,0 0,0 0,0 0,0 z m 0.2,0.3 c -0.1,0 -0.2,0 -0.3,0 -0.1,0 -0.1,-0.1 -0.2,-0.1 0,0 -0.1,-0.1 -0.1,-0.1 0,0 0,-0.1 0,-0.1 l 0,-0.9 c 0,0 0,-0.1 0,-0.1 0,0 0,-0.1 0.1,-0.1 0,0 0.1,-0.1 0.2,-0.1 0.1,0 0.2,0 0.3,0 0.1,0 0.2,0 0.3,0 0.1,0 0.1,0.1 0.1,0.1 0,0 0.1,0.1 0.1,0.1 0,0 0,0.1 0,0.1 l 0,0.8 c 0,0 0,0.1 0,0.1 0,0 0,0.1 -0.1,0.1 0,0 -0.1,0.1 -0.1,0.1 -0.1,0.1 -0.2,0.1 -0.3,0.1 z"
             inkscape:connector-curvature="0"
             style="fill:#ffffff" /></g></g></g><rect
       id="XMLID_11_"
       x="69"
       y="24.799999"
       class="st1"
       width="5.0999999"
       height="2.8"
       style="fill:none;stroke:#ff0000;stroke-width:0.25;stroke-miterlimit:10" /><rect
       id="XMLID_10_"
       x="69"
       y="33.299999"
       class="st1"
       width="5.0999999"
       height="2.8"
       style="fill:none;stroke:#ff0000;stroke-width:0.25;stroke-miterlimit:10" /><path
       id="XMLID_9_"
       class="st0"
       d="m 92.4,5.3 c 0,3.1 0,7.1 0,10.2 -0.9,0 -0.8,0 -0.9,0 l 0,-0.7 c -1.2,0 -2.3,0 -3.5,0 l 0,2.8 c 1.2,0 2.3,0 3.5,0 l 0,-1.1 c 0.2,0 -0.1,0 2,0 0,-0.3 0,-0.6 0,-0.8 0,-0.1 0,-0.2 0,-0.2 l 0,-9.1 c 0.9,0 17.6,0 17.8,0 0,0.8 0,1.6 0,2.4 -0.6,0 -1.2,0 -1.7,0 0,1.6 0,3.3 0,4.9 1.5,0 3.1,0 4.6,0 0,-0.6 0,-1.2 0,-1.9 0.4,0 0.8,0 1.2,0 0,1 0,2 0,2.9 1.5,0 3.1,0 4.6,0 0,-1.6 0,-3.2 0,-4.9 -1.5,0 -3.1,0 -4.6,0 0,0.3 0,0.6 0,0.8 -0.4,0 -0.8,0 -1.2,0 0,-0.7 0,-1.3 0,-1.9 -0.6,0 -1.2,0 -1.7,0 0,-0.8 0,-1.6 0,-2.4 25.3,0 50.6,0 75.9,0 0,12.3 0,24.6 0,36.9 -1.1,0 -2.2,0 -3.3,0 0,-0.6 0,-1.3 0,-1.9 -1.5,0 -3.1,0 -4.6,0 0,1.6 0,3.3 0,4.9 1.5,0 3.1,0 4.6,0 0,-0.3 0,-0.6 0,-0.9 0,-0.3 0,-0.6 0,-1 0.8,0 3.1,0 3.3,0 0,2 0,4.1 0,6.1 -1.1,0 -2.2,0 -3.3,0 0,-0.6 0,-1.3 0,-1.9 -1.5,0 -3.1,0 -4.6,0 0,1.6 0,3.2 0,4.9 1.5,0 3.1,0 4.6,0 0,-0.6 0,-1.2 0,-1.9 1.1,0 2.2,0 3.3,0 0,1.1 0,2.1 0,3.2 -18.6,0 -37.3,0 -55.9,0 0,-5.9 0,-11.7 0,-17.6 0.1,-0.1 0.1,-0.1 0.2,-0.2 0.2,-0.2 0.3,-0.4 0.3,-0.7 0,-1.6 0,-3.2 0,-4.9 0,-0.1 0,-0.1 0,-0.2 -0.7,0 -1.4,0 -2.2,0 0,0.2 0,0.4 0,0.7 0,1.4 0,2.9 0,4.3 0,0.3 0.1,0.6 0.3,0.8 0.1,0.1 0.2,0.2 0.2,0.2 0,6.2 0,12.4 0,18.6 19.4,0 38.7,0 58.1,0 0,-16.8 0,-33.7 0,-50.5 -32.3,0.1 -64.7,0.1 -97,0.1 z"
       inkscape:connector-curvature="0"
       style="fill:#ffffff" /><path
       id="XMLID_8_"
       class="st0"
       d="m 112.4,19.8 c 0,0.4 0,0.8 0,1.2 -1,0 -7.2,0 -7.5,0 0,-0.3 0,-0.6 0,-0.9 -1.2,0 -2.3,0 -3.5,0 0,0.3 0,0.6 0,0.9 -0.6,0 -1.2,0 -1.8,0 0,-1.1 0,-2.3 0,-3.4 -1.6,0 -3.3,0 -4.9,0 0,1.5 0,3 0,4.6 l 1.3,0 c 0,1.6 0,0.2 0,2.2 -0.4,0 -0.8,0 -1.3,0 l 0,2.8 c 1.2,0 2.3,0 3.5,0 l 0,-2.8 c -0.4,0 -0.8,0 -1.1,0 0,-2 0,-0.6 0,-2.2 l 2.5,0 c 0,0 0,-0.1 0,-0.1 0.6,0 1.2,0 1.8,0 0,0.3 0,0.6 0,0.9 1.2,0 2.3,0 3.5,0 0,-0.2 0,-0.3 0,-0.5 0,-0.1 0,-0.3 0,-0.4 2.5,0 5,0 7.5,0 0,0.9 0,1.7 0,2.6 1.5,0 3.1,0 4.6,0 0,-1.6 0,-3.2 0,-4.9 -1.5,0 -3,0 -4.6,0 z"
       inkscape:connector-curvature="0"
       style="fill:#ffffff" /><path
       id="XMLID_7_"
       class="st0"
       d="m 115.3,26.2 c 0,-0.1 0,-0.2 0,-0.2 -1.8,0 -3.5,0 -5.3,0 0,-0.3 0,-0.6 0,-0.9 -1.2,0 -2.3,0 -3.5,0 0,0.3 0,0.6 0,0.9 -0.8,0 -1.4,0 -1.8,0 0,0 -0.2,0 -0.8,0 -0.4,0 -1,0 -1.8,0 0,0 0,0 0,0 0,0 0,0 0,0 0,0 0,0 0,0 0,0 0,0 0,0 -5.4,5.4 -0.5,0.5 -5.9,5.9 0,0 0,0 0,0 0,0 0,0 0,0 0,1.7 0,1.8 0,1.9 -0.4,0 -0.8,0 -1.2,0 l 0,2.8 c 1.2,0 2.3,0 3.5,0 l 0,-2.8 c -0.4,0 -0.8,0 -1.2,0 0,-0.1 0,-0.2 0,-1.4 4.8,-4.8 0.5,-0.5 5.3,-5.3 0.6,0 1.1,0 1.4,0 0,0 0.2,0 0.8,0 0.4,0 1,0 1.8,0 0,0.3 0,0.6 0,0.9 1.2,0 2.3,0 3.5,0 0,-0.3 0,-0.6 0,-0.9 0.8,0 1.6,0 2.4,0 0,1.3 0,2.7 0,4 0.7,0 4.4,0 4.6,0 0,-1.6 0,-3.2 0,-4.9 -0.6,0 -1.2,0 -1.8,0 z"
       inkscape:connector-curvature="0"
       style="fill:#ffffff" /><path
       id="XMLID_6_"
       class="st2"
       d="m 192.7,2.8 -124.7,0 0,7.3 -65.2,0 0,40.7 65.2,0 0,7.3 124.7,0 c 0.1,-8 0.1,-47.3 0,-55.3 z"
       inkscape:connector-curvature="0"
       style="fill:none;stroke:#ff0000;stroke-width:0.25330001;stroke-miterlimit:10" /><path
       id="XMLID_5_"
       class="st0"
       d="m 121.4,7.6 c 0,3.3 0,6.5 0,9.8 -1,0 -1.9,0 -2.9,0 0,6.2 0,12.4 0,18.7 -2.8,0 -5.7,0 -8.5,0 0,-0.3 0,-0.6 0,-0.9 -0.1,0 -0.3,0 -0.4,0 -0.1,0 -0.3,0 -0.4,0 -0.1,0 -0.3,0 -0.4,0 0,-1.4 0,-2.7 0,-4.1 -1.3,0 -2.6,0 -3.9,0 0,-0.3 0,-0.6 0,-0.9 -1.2,0 -2.3,0 -3.5,0 0,0.1 0,0.3 0,0.4 l 0,1.1 c 0,0.5 0,0.9 0,1.3 0.4,0 0.8,0 1.2,0 0,9.7 0,0.7 0,11.2 -10.6,0 -1.8,0 -11.2,0 l 0,-0.9 c -1.2,0 -2.3,0 -3.5,0 l 0,2.8 c 1.2,0 2.3,0 3.5,0 l 0,-0.9 c 9.6,0 0,0 12.2,0 0,-0.2 0,-0.5 0,-0.7 0,0 0,0 0,0 0,-11.1 0,-1.8 0,-11.6 0.4,0 0.8,0 1.2,0 0,-0.3 0,-0.6 0,-0.8 0.9,0 1.9,0 2.8,0 0,1 0,2 0,3 -0.4,0 -0.8,0 -1.2,0 0,1 0,1.9 0,2.9 1.2,0 2.3,0 3.5,0 0,-0.3 0,-0.6 0,-0.9 3.2,0 6.4,0 9.6,0 0,-6.2 0,-12.4 0,-18.6 0,0 0,0 0,0 0,0 0,0 0,0 3.7,0 7.4,0 11.1,0 0,0.2 0,0.3 0,0.5 0.7,0 1.4,0 2.1,0 0,-1.7 0,-3.4 0,-5 -0.7,0 -1.4,0 -2.2,0 0,1.2 0,2.3 0,3.4 -0.9,0 -8,0 -8.2,0 0,-2.9 0,-5.8 0,-8.6 21.1,0 42.2,0 63.3,0 0,6.5 0,13 0,19.4 -1.3,0 -2.5,0 -3.8,0 0,-0.4 0,-0.8 0,-1.2 -2.4,0 -4.8,0 -7.2,0 0,0.7 0,3.3 0,3.6 1,0 2,0 3,0 0,6.7 0,13.3 0,19.9 -0.5,0 -1,0 -1.5,0 0,-0.6 0,-1.3 0,-1.9 -1.5,0 -3.1,0 -4.6,0 0,0.6 0,1.3 0,1.9 -1,0 -14.7,0 -15,0 0,-1.2 0,-2.4 0,-3.6 -1.6,0 -3.2,0 -4.8,0 l 0,-0.1 -12.2,0 0,1.4 12.5,0 0,-0.2 c 1.2,0 2.5,0 3.7,0 0,1.2 0,2.4 0,3.6 5.4,0 10.7,0 16.1,0 0,0.6 0,1.2 0,1.9 0.7,0 4.4,0 4.6,0 0,-0.6 0,-1.2 0,-1.8 0.8,0 1.7,0 2.5,0 0,-7 0,-14 0,-21.1 1,0 2,0 3.1,0 0,-0.4 0,-0.8 0,-1.3 1.6,0 3.2,0 4.9,0 0,-7.2 0,-14.4 0,-21.6 C 165.1,7.6 143.2,7.6 121.4,7.6 Z"
       inkscape:connector-curvature="0"
       style="fill:#ffffff" /><path
       id="XMLID_4_"
       class="st0"
       d="m 139.8,49.5 0,0.4 -3.8,0 c 0,-4.6 0,-9.1 0,-13.7 0.2,0 0.4,0 0.5,0 0,-1.7 0,-3.3 0,-5 -0.7,0 -1.4,0 -2.1,0 0,1.7 0,3.3 0,5 0.2,0 0.3,0 0.5,0 0,5.2 0,9.4 0,14.5 l 0,0 0,0.3 4.9,0 0,0.5 12.2,0 0,-2 -12.2,0 z"
       inkscape:connector-curvature="0"
       style="fill:#ffffff" /><path
       id="XMLID_3_"
       class="st0"
       d="m 139.8,43.4 0,0.4 -0.2,0 c 0,-2.2 0,-5.7 0,-7.5 0.2,0 0.3,0 0.5,0 0,-1.7 0,-3.3 0,-5 -0.7,0 -1.4,0 -2.1,0 0,1.7 0,3.3 0,5 0.2,0 0.4,0 0.6,0 0,2.5 0,5 0,7.5 l 0,0 0,1.1 1.3,0 0,0.4 12.1,0 0,-1.9 -12.2,0 z"
       inkscape:connector-curvature="0"
       style="fill:#ffffff" /></g></svg>