<?xml version="1.0" encoding="UTF-8" standalone="no"?>
<!-- Generator: Adobe Illustrator 19.0.0, SVG Export Plug-In . SVG Version: 6.00 Build 0)  -->

<svg
   xmlns:dc="http://purl.org/dc/elements/1.1/"
   xmlns:cc="http://creativecommons.org/ns#"
   xmlns:rdf="http://www.w3.org/1999/02/22-rdf-syntax-ns#"
   xmlns:svg="http://www.w3.org/2000/svg"
   xmlns="http://www.w3.org/2000/svg"
   xmlns:sodipodi="http://sodipodi.sourceforge.net/DTD/sodipodi-0.dtd"
   xmlns:inkscape="http://www.inkscape.org/namespaces/inkscape"
   version="1.1"
   id="Livello_1"
   x="0px"
   y="0px"
   viewBox="0 0 155.90552 109.84251"
   xml:space="preserve"
   inkscape:version="0.91 r13725"
   sodipodi:docname="output_ledarray.svg"
   width="44mm"
   height="31mm"><metadata
     id="metadata97"><rdf:RDF><cc:Work
         rdf:about=""><dc:format>image/svg+xml</dc:format><dc:type
           rdf:resource="http://purl.org/dc/dcmitype/StillImage" /><dc:title></dc:title></cc:Work></rdf:RDF></metadata><defs
     id="defs95" /><sodipodi:namedview
     pagecolor="#ffffff"
     bordercolor="#666666"
     borderopacity="1"
     objecttolerance="10"
     gridtolerance="10"
     guidetolerance="10"
     inkscape:pageopacity="0"
     inkscape:pageshadow="2"
     inkscape:window-width="1332"
     inkscape:window-height="735"
     id="namedview93"
     showgrid="false"
     units="mm"
     inkscape:zoom="2.8991378"
     inkscape:cx="96.461479"
     inkscape:cy="62.027945"
     inkscape:window-x="260"
     inkscape:window-y="63"
     inkscape:window-maximized="0"
     inkscape:current-layer="Livello_1" /><style
     type="text/css"
     id="style3">
	.st0{fill:none;stroke:#FF0000;stroke-width:0.25;stroke-miterlimit:10;}
	.st1{fill:#FFFFFF;}
	.st2{font-family:'HKGrotesk-Bold';}
	.st3{font-size:5.9194px;}
</style><g
     id="g3433"
     transform="translate(-331.72342,161.32624)"><path
       inkscape:connector-curvature="0"
       id="path5"
       d="m 473.46736,-53.557488 -127.45941,0 c -6.62939,0 -12.00795,-5.37856 -12.00795,-12.00795 l 0,-81.679092 c 0,-6.62939 5.37856,-12.00795 12.00795,-12.00795 l 127.33432,0 c 6.62939,0 12.00795,5.37856 12.00795,12.00795 l 0,81.679092 c 0.12509,6.62939 -5.25348,12.00795 -11.88286,12.00795 z" /><path
       style="fill:none;stroke:#ff0000;stroke-width:0.31270707;stroke-miterlimit:10"
       inkscape:connector-curvature="0"
       id="path7"
       d="m 346.00795,-56.059148 c -5.25348,0 -9.50629,-4.25281 -9.50629,-9.50629 l 0,-81.679092 c 0,-5.25348 4.25281,-9.50629 9.50629,-9.50629 l 127.33432,0 c 5.25348,0 9.5063,4.25281 9.5063,9.50629 l 0,81.679092 c 0,5.25348 -4.25282,9.50629 -9.5063,9.50629 l -127.33432,0 z"
       class="st0" /><g
       transform="matrix(1.2508283,0,0,1.2508283,-83.776651,-349.50346)"
       id="g9"><path
         style="fill:#ffffff"
         inkscape:connector-curvature="0"
         id="path11"
         d="m 406.5,187.7 c 0.6,0 1.2,0 1.8,0 0,-0.4 0,-0.7 0,-1.1 -0.6,0 -1.2,0 -1.8,0 0,-1.5 0,-3 0,-4.6 0.6,0 1.2,0 1.8,0 0,-0.5 0,-0.9 0,-1.4 -4.4,0 -8.8,0 -13.2,0 0,0.5 0,0.9 0,1.4 0.6,0 1.2,0 1.8,0 0,1.5 0,3 0,4.6 -1.6,0 -3.2,0 -4.8,0 0,-1.5 0,-3 0,-4.6 0.6,0 1.2,0 1.8,0 0,-0.5 0,-0.9 0,-1.4 -2,0 -4,0 -6.1,0 0,-0.9 0,-1.7 0,-2.6 -0.6,0 -1.2,0 -1.9,0 0,-1.5 0,-3 0,-4.6 1.6,0 3.2,0 4.8,0 0,1.5 0,3 0,4.6 -0.6,0 -1.2,0 -1.8,0 0,0.5 0,0.9 0,1.4 5.1,0 10.1,0 15.2,0 0,-2.9 0,-5.9 0,-8.9 -0.4,0 -0.7,0 -1.1,0 0,0.5 0,1.1 0,1.7 -1.6,0 -3.2,0 -4.9,0 0,-1.5 0,-3 0,-4.6 1.6,0 3.2,0 4.8,0 0,0.6 0,1.1 0,1.7 0.8,0 1.5,0 2.3,0 0,3.4 0,6.7 0,10 11,0 21.9,0 32.8,0 0,0.9 0,1.7 0,2.6 0.6,0 1.2,0 1.9,0 0,1.5 0,3.1 0,4.6 -1.6,0 -3.2,0 -4.8,0 0,-1.5 0,-3 0,-4.6 0.6,0 1.2,0 1.8,0 0,-0.5 0,-0.9 0,-1.4 -4.4,0 -8.8,0 -13.2,0 0,0.5 0,0.9 0,1.4 0.6,0 1.2,0 1.8,0 0,1.5 0,3.1 0,4.6 -1.6,0 -3.3,0 -4.9,0 0,-1.5 0,-3 0,-4.6 0.6,0 1.2,0 1.8,0 0,-0.5 0,-0.9 0,-1.4 -4.4,0 -8.8,0 -13.2,0 0,0.5 0,0.9 0,1.4 0.6,0 1.2,0 1.8,0 0,1.5 0,3.1 0,4.6 -0.6,0 -1.2,0 -1.8,0 0,0.4 0,0.7 0,1.1 0.6,0 1.2,0 1.9,0 0,0.7 0,1.4 0,2.1 0.4,0 0.8,0 1.2,0 0,-0.7 0,-1.4 0,-2.1 1.7,0 3.3,0 4.9,0 0,1.5 0,3.1 0,4.6 -1.6,0 -3.3,0 -4.9,0 0,-0.4 0,-0.9 0,-1.3 -0.4,0 -0.8,0 -1.2,0 0,0.4 0,0.9 0,1.3 -1.6,0 -3.2,0 -4.9,0 0.3,-1.4 0.3,-2.9 0.3,-4.5 z"
         class="st1" /><path
         style="fill:#ffffff"
         inkscape:connector-curvature="0"
         id="path13"
         d="m 438.2,215.4 c 0,0.4 0,0.8 0,1.1 0.6,0 1.2,0 1.9,0 0,0.7 0,1.4 0,2.1 0.4,0 0.8,0 1.2,0 0,-0.7 0,-1.4 0,-2.1 1.6,0 3.2,0 4.9,0 0,1.5 0,3 0,4.6 -1.6,0 -3.2,0 -4.8,0 0,-0.4 0,-0.9 0,-1.3 -0.4,0 -0.8,0 -1.3,0 0,0.4 0,0.9 0,1.3 -1.6,0 -3.2,0 -4.9,0 0,-1.5 0,-3 0,-4.6 0.6,0 1.2,0 1.8,0 0,-0.4 0,-0.7 0,-1.1 -0.6,0 -1.2,0 -1.8,0 0,-1.6 0,-3.1 0,-4.7 0.6,0 1.2,0 1.8,0 0,-0.5 0,-0.9 0,-1.4 -4.4,0 -8.8,0 -13.2,0 0,0.5 0,0.9 0,1.4 0.6,0 1.2,0 1.8,0 0,1.6 0,3.1 0,4.6 -1.6,0 -3.3,0 -4.9,0 0,-1.5 0,-3.1 0,-4.6 0.6,0 1.2,0 1.8,0 0,-0.5 0,-0.9 0,-1.4 -4.4,0 -8.8,0 -13.2,0 0,0.5 0,0.9 0,1.4 0.6,0 1.2,0 1.8,0 0,1.6 0,3.1 0,4.6 -1.6,0 -3.2,0 -4.8,0 0,-1.5 0,-3.1 0,-4.6 0.6,0 1.2,0 1.8,0 0,-0.5 0,-0.9 0,-1.4 -4.4,0 -8.8,0 -13.2,0 0,0.5 0,0.9 0,1.4 0.6,0 1.2,0 1.8,0 0,1.6 0,3.1 0,4.6 -1.6,0 -3.2,0 -4.8,0 0,-1.5 0,-3.1 0,-4.6 0.6,0 1.2,0 1.8,0 0,-0.5 0,-0.9 0,-1.4 -2,0 -4,0 -6.1,0 0,-0.9 0,-1.7 0,-2.6 -0.6,0 -1.2,0 -1.9,0 0,-1.5 0,-3 0,-4.6 1.6,0 3.2,0 4.8,0 0,1.5 0,3 0,4.6 -0.6,0 -1.2,0 -1.8,0 0,0.5 0,1 0,1.5 14.7,0 29.3,0 44,0 0,-3 0,-5.9 0,-8.9 -0.4,0 -0.7,0 -1.1,0 0,0.6 0,1.1 0,1.7 -1.6,0 -3.3,0 -4.9,0 0,-1.5 0,-3 0,-4.6 1.6,0 3.3,0 4.9,0 0,0.6 0,1.1 0,1.7 0.8,0 1.5,0 2.3,0 0,3.4 0,6.7 0,10.1 1.4,0 2.7,0 4.1,0 0,0.9 0,1.7 0,2.5 0.6,0 1.2,0 1.9,0 0,1.6 0,3.1 0,4.7 -0.5,0 -1.1,0 -1.7,0 z"
         class="st1" /><path
         style="fill:#ffffff"
         inkscape:connector-curvature="0"
         id="path15"
         d="m 420.8,201 c 0,-1.6 0,-3.1 0,-4.6 0.6,0 1.2,0 1.8,0 0,-0.5 0,-1 0,-1.5 -4.4,0 -8.8,0 -13.2,0 0,0.5 0,0.9 0,1.4 0.6,0 1.2,0 1.8,0 0,1.5 0,3 0,4.6 -1.6,0 -3.2,0 -4.8,0 0,-1.5 0,-3 0,-4.6 0.6,0 1.2,0 1.8,0 0,-0.5 0,-1 0,-1.5 -4.4,0 -8.8,0 -13.2,0 0,0.5 0,0.9 0,1.4 0.6,0 1.2,0 1.8,0 0,1.5 0,3 0,4.6 -1.6,0 -3.2,0 -4.8,0 0,-1.5 0,-3 0,-4.6 0.6,0 1.2,0 1.8,0 0,-0.5 0,-1 0,-1.5 -2,0 -4,0 -6.1,0 0,-0.9 0,-1.7 0,-2.5 -0.6,0 -1.2,0 -1.9,0 0,-1.6 0,-3.1 0,-4.6 1.6,0 3.2,0 4.8,0 0,1.5 0,3.1 0,4.6 -0.6,0 -1.2,0 -1.8,0 0,0.5 0,0.9 0,1.4 9.9,0 19.7,0 29.6,0 0,-2.9 0,-5.9 0,-8.9 -0.4,0 -0.7,0 -1.1,0 0,0.5 0,1.1 0,1.7 -1.7,0 -3.3,0 -4.9,0 0,-1.5 0,-3 0,-4.6 1.6,0 3.3,0 4.9,0 0,0.6 0,1.1 0,1.7 0.8,0 1.5,0 2.3,0 0,3.4 0,6.7 0,10.1 6.2,0 12.3,0 18.5,0 0,0.9 0,1.7 0,2.6 0.6,0 1.2,0 1.9,0 0,1.5 0,3.1 0,4.6 -1.6,0 -3.2,0 -4.8,0 0,-1.5 0,-3 0,-4.6 0.6,0 1.2,0 1.8,0 0,-0.5 0,-1 0,-1.5 -4.4,0 -8.8,0 -13.2,0 0,0.5 0,0.9 0,1.5 0.6,0 1.2,0 1.8,0 0,1.5 0,3 0,4.6 -0.6,0 -1.2,0 -1.8,0 0,0.4 0,0.7 0,1.1 0.6,0 1.2,0 1.8,0 0,0.7 0,1.4 0,2.1 0.4,0 0.8,0 1.2,0 0,-0.7 0,-1.4 0,-2.1 1.7,0 3.3,0 4.9,0 0,1.5 0,3 0,4.6 -1.6,0 -3.3,0 -4.9,0 0,-0.4 0,-0.9 0,-1.3 -0.4,0 -0.8,0 -1.2,0 0,0.4 0,0.9 0,1.3 -1.7,0 -3.3,0 -4.9,0 0,-1.5 0,-3 0,-4.6 0.6,0 1.2,0 1.8,0 0,-0.4 0,-0.7 0,-1.1 -0.5,0.2 -1.1,0.2 -1.7,0.2 z"
         class="st1" /><path
         style="fill:#ffffff"
         inkscape:connector-curvature="0"
         id="path17"
         d="m 422.7,167.6 c 0,-0.5 0,-0.9 0,-1.4 -4.4,0 -8.8,0 -13.2,0 0,0.4 0,0.9 0,1.4 0.6,0 1.2,0 1.8,0 0,1.5 0,3.1 0,4.6 -1.6,0 -3.2,0 -4.8,0 0,-1.5 0,-3 0,-4.6 0.6,0 1.2,0 1.8,0 0,-0.5 0,-0.9 0,-1.4 -4.4,0 -8.8,0 -13.2,0 0,0.5 0,0.9 0,1.4 0.6,0 1.2,0 1.8,0 0,1.5 0,3 0,4.6 -0.6,0 -1.2,0 -1.8,0 0,0.4 0,0.8 0,1.2 0.6,0 1.2,0 1.8,0 0,0.7 0,1.4 0,2 0.4,0 0.8,0 1.2,0 0,-0.7 0,-1.3 0,-2 1.6,0 3.3,0 4.9,0 0,1.5 0,3 0,4.6 -1.6,0 -3.2,0 -4.9,0 0,-0.4 0,-0.9 0,-1.3 -0.4,0 -0.8,0 -1.2,0 0,0.4 0,0.9 0,1.3 -1.6,0 -3.3,0 -4.9,0 0,-1.5 0,-3 0,-4.6 0.6,0 1.2,0 1.8,0 0,-0.4 0,-0.8 0,-1.2 -0.6,0 -1.2,0 -1.8,0 0,-1.5 0,-3.1 0,-4.6 0.6,0 1.2,0 1.8,0 0,-0.5 0,-0.9 0,-1.4 -2,0 -4,0 -6.1,0 0,-0.9 0,-1.7 0,-2.6 -0.6,0 -1.2,0 -1.9,0 0,-1.5 0,-3.1 0,-4.6 1.6,0 3.2,0 4.8,0 0,1.5 0,3 0,4.6 -0.6,0 -1.2,0 -1.8,0 0,0.5 0,0.9 0,1.4 16.4,0 32.8,0 49.3,0 0,0.9 0,1.7 0,2.6 0.6,0 1.2,0 1.9,0 0,1.5 0,3.1 0,4.6 -1.6,0 -3.2,0 -4.8,0 0,-1.5 0,-3 0,-4.6 0.6,0 1.2,0 1.8,0 0,-0.5 0,-0.9 0,-1.4 -4.4,0 -8.8,0 -13.2,0 0,0.5 0,0.9 0,1.4 0.6,0 1.2,0 1.8,0 0,1.5 0,3.1 0,4.6 -1.6,0 -3.3,0 -4.9,0 0,-1.5 0,-3 0,-4.6 0.7,0 1.3,0 2,0 z"
         class="st1" /><path
         style="fill:#ffffff"
         inkscape:connector-curvature="0"
         id="path19"
         d="m 395,223.8 c 0,0.5 0,0.9 0,1.4 0.6,0 1.2,0 1.8,0 0,1.6 0,3.1 0,4.6 -1.6,0 -3.2,0 -4.8,0 0,-1.5 0,-3.1 0,-4.6 0.6,0 1.2,0 1.8,0 0,-0.5 0,-0.9 0,-1.4 -2,0 -4,0 -6.1,0 0,-0.9 0,-1.7 0,-2.6 -0.6,0 -1.2,0 -1.9,0 0,-1.5 0,-3.1 0,-4.6 1.6,0 3.2,0 4.8,0 0,1.5 0,3 0,4.6 -0.6,0 -1.2,0 -1.8,0 0,0.5 0,1 0,1.5 19.5,0 38.9,0 58.4,0 0,-3 0,-5.9 0,-8.9 -0.4,0 -0.8,0 -1.2,0 0,0.6 0,1.1 0,1.7 -1.6,0 -3.3,0 -4.9,0 0,-1.5 0,-3.1 0,-4.6 1.6,0 3.2,0 4.9,0 0,0.6 0,1.1 0,1.7 0.8,0 1.5,0 2.3,0 0,3.7 0,7.5 0,11.2 -3.4,0 -6.8,0 -10.3,0 0,0.5 0,0.9 0,1.4 0.6,0 1.2,0 1.8,0 0,1.6 0,3.1 0,4.6 -1.6,0 -3.2,0 -4.8,0 0,-1.5 0,-3.1 0,-4.6 0.6,0 1.2,0 1.8,0 0,-0.5 0,-0.9 0,-1.4 -4.4,0 -8.8,0 -13.2,0 0,0.5 0,0.9 0,1.4 0.6,0 1.2,0 1.8,0 0,1.6 0,3.1 0,4.6 -1.6,0 -3.3,0 -4.9,0 0,-1.5 0,-3.1 0,-4.6 0.6,0 1.2,0 1.8,0 0,-0.5 0,-0.9 0,-1.4 -4.4,0 -8.8,0 -13.2,0 0,0.5 0,0.9 0,1.4 0.6,0 1.2,0 1.8,0 0,1.6 0,3.1 0,4.6 -1.6,0 -3.2,0 -4.8,0 0,-1.5 0,-3.1 0,-4.6 0.6,0 1.2,0 1.8,0 0,-0.5 0,-0.9 0,-1.4 -4,0 -8.4,0 -12.9,0 z"
         class="st1" /><path
         style="fill:#ffffff"
         inkscape:connector-curvature="0"
         id="path21"
         d="m 362.4,225.9 c 0,-1 0,-2 0,-3 1.2,0 2.4,0 3.6,0 0,2.4 0,4.8 0,7.2 -1.2,0 -2.4,0 -3.6,0 0,-1 0,-2 0,-3 -7.3,0 -14.5,0 -21.8,0 0,-10.2 0,-20.3 0,-30.4 1,0 2.1,0 3.1,0 0,-0.6 0,-1.2 0,-1.8 0.6,0 1.2,0 1.9,0 0,-1 0,-2 0,-3.1 -0.1,0 -0.1,0 -0.2,0 0,-0.9 0,-1.9 0,-2.9 0.1,0 0.2,0 0.3,0 0,-4.8 0,-9.6 0,-14.5 1.4,0 2.9,0 4.3,0 0,-0.4 0,-0.9 0,-1.3 2.4,0 4.8,0 7.2,0 0,0.4 0,0.8 0,1.3 2.7,0 5.5,0 8.2,0 0,-0.4 0,-0.8 0,-1.3 0.1,0 0.2,0 0.3,0 2.3,0 4.6,0 6.9,0 0.7,0 1.2,0.3 1.5,0.9 0.1,0.2 0.2,0.3 0.4,0.3 0.8,0 1.6,0 2.4,0 0,1.5 0,3 0,4.5 0.6,0 1.3,0 1.9,0 0,0.7 0,1.4 0,2.2 -1.7,0 -3.3,0 -5,0 0,-0.7 0,-1.4 0,-2.1 0.6,0 1.3,0 1.9,0 0,-1.1 0,-2.2 0,-3.4 -0.5,0 -1,0 -1.5,0 -0.1,0 -0.1,0.1 -0.2,0.2 -0.4,0.7 -0.9,1 -1.7,1 -2.2,0 -4.5,0 -6.7,0 -0.1,0 -0.2,0 -0.3,0 0,-0.4 0,-0.8 0,-1.3 -2.7,0 -5.5,0 -8.2,0 0,0.4 0,0.8 0,1.3 -2.4,0 -4.8,0 -7.2,0 0,-0.4 0,-0.8 0,-1.3 -1.1,0 -2.2,0 -3.3,0 0,4.5 0,9 0,13.5 0.1,0 0.2,0 0.3,0 0,1 0,1.9 0,2.9 -0.1,0 -0.2,0 -0.3,0 0,1 0,2 0,3 0.6,0 1.2,0 1.8,0 0,1.6 0,3.1 0,4.6 -1.6,0 -3.2,0 -4.9,0 0,-0.6 0,-1.1 0,-1.7 -0.7,0 -1.3,0 -2,0 0,9.4 0,18.7 0,28.1 7.2,0.1 14,0.1 20.9,0.1 z"
         class="st1" /><path
         style="fill:#ffffff"
         inkscape:connector-curvature="0"
         id="path23"
         d="m 367.3,180.6 c -1.9,0 -3.7,0 -5.5,0 0,0.1 0,0.3 0,0.4 -0.1,0 -0.2,0 -0.3,0 -1.6,0 -3.2,0 -4.8,0 -0.2,0 -0.5,-0.1 -0.7,-0.3 -0.1,-0.1 -0.3,-0.2 -0.5,-0.2 -2,0 -3.9,0 -5.9,0 0,0.6 0,1.3 0,1.9 0.1,0 0.2,0 0.3,0 0,0.3 0,0.5 0,0.8 0.7,0 1.3,0 2,0 0,7.7 0,15.4 0,23.1 -1,0 -2.1,0 -3.1,0 0,0.6 0,1.2 0,1.8 -0.6,0 -1.2,0 -1.9,0 0,0.9 0,1.7 0,2.5 0.6,0 1.2,0 1.8,0 0,1.6 0,3.1 0,4.6 -1.6,0 -3.2,0 -4.8,0 0,-1.5 0,-3.1 0,-4.6 0.6,0 1.2,0 1.8,0 0,-0.9 0,-1.7 0,-2.5 -0.6,0 -1.2,0 -1.8,0 0,-1.5 0,-3.1 0,-4.6 1.6,0 3.2,0 4.9,0 0,0.6 0,1.1 0,1.7 0.7,0 1.3,0 2,0 0,-6.9 0,-13.8 0,-20.8 -0.3,0 -0.6,0 -0.9,0 0,0.3 0,0.6 0,0.9 -0.6,0 -1.2,0 -1.8,0 0,-0.9 0,-1.9 0,-2.8 0.1,0 0.2,0 0.3,-0.1 0,-1 0,-2 0,-3.1 0.1,0 0.2,0 0.3,0 2.3,0 4.5,0 6.8,0 0.2,0 0.3,-0.1 0.5,-0.2 0.2,-0.2 0.5,-0.3 0.7,-0.3 1.7,0 3.3,0 5,0 0,0 0,0 0.1,0 0,0.1 0,0.3 0,0.5 2.2,0 4.4,0 6.7,0 0,12.5 0,24.9 0,37.4 2.4,0 4.8,0 7.2,0 0,3.1 0,6.1 0,9.1 0.4,0 0.8,0 1.2,0 0,-1 0,-2 0,-3 1.2,0 2.4,0 3.6,0 0,2.4 0,4.8 0,7.2 -1.2,0 -2.4,0 -3.6,0 0,-1 0,-2 0,-3 -0.8,0 -1.6,0 -2.4,0 0,-3.1 0,-6.1 0,-9.2 -2.4,0 -4.8,0 -7.2,0 0,-12.3 0,-24.7 0,-37.2 z"
         class="st1" /><path
         style="fill:#ffffff"
         inkscape:connector-curvature="0"
         id="path25"
         d="m 348.7,222.3 c 0,0.6 0,1.1 0,1.7 -1.6,0 -3.2,0 -4.9,0 0,-1.5 0,-3 0,-4.6 1.6,0 3.2,0 4.8,0 0,0.5 0,1.1 0,1.7 1.6,0 3.3,0 4.9,0 0,-10.3 0,-20.6 0,-30.9 1,0 2.1,0 3.1,0 0,-0.2 0,-0.3 0,-0.5 1.7,0 3.4,0 5,0 0,0.1 0,0.3 0,0.5 1,0 2,0 3.1,0 0,5.8 0,11.5 0,17.3 0.4,0 0.8,0 1.2,0 0,2.4 0,4.8 0,7.2 -1.2,0 -2.4,0 -3.6,0 0,-2.4 0,-4.8 0,-7.2 0.4,0 0.8,0 1.2,0 0,-5.4 0,-10.8 0,-16.1 -0.6,0 -1.3,0 -1.9,0 0,0.2 0,0.3 0,0.5 -1.7,0 -3.3,0 -5,0 0,-0.2 0,-0.3 0,-0.5 -0.7,0 -1.3,0 -1.9,0 0,10.3 0,20.6 0,30.9 -1.9,0 -4,0 -6,0 z"
         class="st1" /><path
         style="fill:#ffffff"
         inkscape:connector-curvature="0"
         id="path27"
         d="m 381.7,198.6 c -0.9,0 -1.8,0 -2.7,0 0,0.2 0,0.3 0,0.5 -1.7,0 -3.4,0 -5,0 0,-0.2 0,-0.3 0,-0.5 -0.6,0 -1.3,0 -1.9,0 0,3 0,5.9 0,8.9 0.4,0 0.8,0 1.2,0 0,2.4 0,4.8 0,7.2 -1.2,0 -2.4,0 -3.6,0 0,-2.4 0,-4.8 0,-7.2 0.4,0 0.8,0 1.2,0 0,-3.4 0,-6.8 0,-10.2 1,0 2,0 3.1,0 0,-0.2 0,-0.3 0,-0.4 1.7,0 3.3,0 5,0 0,0.1 0,0.3 0,0.4 1.3,0 2.5,0 3.8,0 0,5.1 0,10.1 0,15.1 1,0 2.1,0 3.1,0 0,-0.6 0,-1.1 0,-1.7 1.6,0 3.3,0 4.9,0 0,1.5 0,3.1 0,4.6 -1.6,0 -3.2,0 -4.9,0 0,-0.6 0,-1.1 0,-1.7 -1.4,0 -2.8,0 -4.2,0 0,-5 0,-10 0,-15 z"
         class="st1" /><path
         style="fill:#ffffff"
         inkscape:connector-curvature="0"
         id="path29"
         d="m 380.5,214.7 c -0.4,0 -0.8,0 -1.2,0 0,1.2 0,2.3 0,3.5 1.2,0 2.4,0 3.5,0 0,2.9 0,5.8 0,8.7 1,0 2.1,0 3.1,0 0,-0.6 0,-1.1 0,-1.7 1.6,0 3.2,0 4.9,0 0,1.5 0,3.1 0,4.6 -1.6,0 -3.2,0 -4.8,0 0,-0.6 0,-1.1 0,-1.7 -1.4,0 -2.8,0 -4.3,0 0,-2.9 0,-5.7 0,-8.6 -1.2,0 -2.4,0 -3.6,0 0,-1.6 0,-3.1 0,-4.7 -0.4,0 -0.8,0 -1.3,0 0,-0.1 0,-0.2 0,-0.3 0,-2.3 0,-4.6 0,-6.8 0,-0.7 0.3,-1.3 1,-1.6 0.2,-0.1 0.3,-0.2 0.3,-0.4 0,-1 0,-1.9 0,-2.9 -1.4,0 -2.7,0 -4.1,0 0,-0.7 0,-1.4 0,-2.2 1.7,0 3.3,0 5,0 0.2,0.1 -0.1,0.5 0.3,0.5 0,1.6 0,3.2 0,4.8 0.9,0.3 1.2,1 1.3,1.9 0,2.2 0,4.5 0,6.7 -0.1,0 -0.1,0.1 -0.1,0.2 z"
         class="st1" /><path
         style="fill:#ffffff"
         inkscape:connector-curvature="0"
         id="path31"
         d="m 350.1,169.5 c 0,-0.4 0,-0.8 0,-1.2 -2,0 -4,0 -5.9,0 0,4.7 0,9.4 0,14.1 0.1,0 0.2,0 0.3,0 0,0.9 0,1.9 0,2.9 -0.5,0 -1.1,0 -1.7,0 0,-0.9 0,-1.9 0,-2.9 0.1,0 0.2,0 0.3,0 0,-5.1 0,-10.2 0,-15.3 2.4,0 4.7,0 7.1,0 0,-0.4 0,-0.8 0,-1.2 2.4,0 4.8,0 7.2,0 0,0.4 0,0.8 0,1.2 2.7,0 5.5,0 8.2,0 0,-0.4 0,-0.8 0,-1.2 2.4,0 4.8,0 7.2,0 0,1.2 0,2.3 0,3.5 -2.4,0 -4.8,0 -7.2,0 0,-0.4 0,-0.8 0,-1.2 -2.7,0 -5.5,0 -8.2,0 0,0.4 0,0.8 0,1.2 -2.5,0.1 -4.9,0.1 -7.3,0.1 z"
         class="st1" /><path
         style="fill:#ffffff"
         inkscape:connector-curvature="0"
         id="path33"
         d="m 358.6,220.9 c 0,-6.1 0,-12.1 0,-18.2 -0.6,0 -1.3,0 -1.9,0 0,-0.7 0,-1.4 0,-2.1 1.7,0 3.3,0 5,0 0,0.7 0,1.4 0,2.1 -0.6,0 -1.3,0 -2,0 0,5.7 0,11.4 0,17.1 4.1,0 8.1,0 12.2,0 0,1.1 0,2.1 0,3.2 0.4,0 0.8,0 1.2,0 0,2.4 0,4.8 0,7.2 -1.2,0 -2.4,0 -3.6,0 0,-2.4 0,-4.8 0,-7.2 0.4,0 0.8,0 1.2,0 0,-0.7 0,-1.4 0,-2.1 -3.9,0 -8,0 -12.1,0 z"
         class="st1" /><path
         style="fill:#ffffff"
         inkscape:connector-curvature="0"
         id="path35"
         d="m 426.9,186.6 c 0,-1.6 0,-3.1 0,-4.6 1.6,0 3.3,0 4.9,0 0,1.5 0,3 0,4.6 -0.6,0 -1.2,0 -1.8,0 0,0.4 0,0.7 0,1.1 0.6,0 1.2,0 1.8,0 0,1.6 0,3.1 0,4.6 -1.6,0 -3.3,0 -4.9,0 0,-0.4 0,-0.9 0,-1.3 -0.4,0 -0.8,0 -1.2,0 0,0.4 0,0.9 0,1.3 -1.7,0 -3.3,0 -4.9,0 0,-1.5 0,-3.1 0,-4.6 1.6,0 3.2,0 4.9,0 0,0.7 0,1.4 0,2.1 0.4,0 0.8,0 1.2,0 0,-0.7 0,-1.4 0,-2.1 0.6,0 1.2,0 1.9,0 0,-0.4 0,-0.7 0,-1.1 -0.6,0 -1.2,0 -1.9,0 z"
         class="st1" /><path
         style="fill:#ffffff"
         inkscape:connector-curvature="0"
         id="path37"
         d="m 428.8,215.4 c -0.6,0 -1.2,0 -1.8,0 0,-1.5 0,-3.1 0,-4.6 1.6,0 3.3,0 4.9,0 0,1.5 0,3.1 0,4.6 -0.6,0 -1.2,0 -1.8,0 0,0.4 0,0.7 0,1.1 0.6,0 1.2,0 1.8,0 0,1.5 0,3 0,4.6 -1.6,0 -3.3,0 -4.9,0 0,-0.4 0,-0.9 0,-1.3 -0.4,0 -0.8,0 -1.2,0 0,0.4 0,0.9 0,1.3 -1.7,0 -3.3,0 -4.9,0 0,-1.5 0,-3 0,-4.6 1.6,0 3.3,0 4.9,0 0,0.7 0,1.4 0,2.1 0.4,0 0.8,0 1.2,0 0,-0.7 0,-1.4 0,-2.1 0.6,0 1.2,0 1.9,0 -0.1,-0.3 -0.1,-0.7 -0.1,-1.1 z"
         class="st1" /><path
         style="fill:#ffffff"
         inkscape:connector-curvature="0"
         id="path39"
         d="m 425.7,175.4 c 0.4,0 0.8,0 1.2,0 0,-0.7 0,-1.3 0,-2 0.6,0 1.2,0 1.9,0 0,-0.4 0,-0.8 0,-1.2 -0.6,0 -1.2,0 -1.8,0 0,-1.5 0,-3 0,-4.6 1.6,0 3.3,0 4.9,0 0,1.5 0,3 0,4.6 -0.6,0 -1.2,0 -1.8,0 0,0.4 0,0.8 0,1.2 0.6,0 1.2,0 1.8,0 0,1.5 0,3.1 0,4.6 -1.6,0 -3.3,0 -4.9,0 0,-0.4 0,-0.9 0,-1.3 -0.4,0 -0.8,0 -1.2,0 0,0.4 0,0.9 0,1.3 -1.7,0 -3.3,0 -4.9,0 0,-1.5 0,-3 0,-4.6 1.6,0 3.3,0 4.9,0 -0.1,0.7 -0.1,1.3 -0.1,2 z"
         class="st1" /><path
         style="fill:#ffffff"
         inkscape:connector-curvature="0"
         id="path41"
         d="m 417.4,221.1 c -1.6,0 -3.3,0 -4.9,0 0,-0.4 0,-0.9 0,-1.3 -0.4,0 -0.8,0 -1.2,0 0,0.4 0,0.9 0,1.3 -1.6,0 -3.2,0 -4.9,0 0,-1.5 0,-3 0,-4.6 1.6,0 3.2,0 4.8,0 0,0.7 0,1.4 0,2.1 0.4,0 0.8,0 1.2,0 0,-0.7 0,-1.4 0,-2.1 0.6,0 1.2,0 1.9,0 0,-0.4 0,-0.8 0,-1.1 -0.6,0 -1.2,0 -1.8,0 0,-1.6 0,-3.1 0,-4.6 1.6,0 3.3,0 4.9,0 0,1.5 0,3.1 0,4.6 -0.6,0 -1.2,0 -1.8,0 0,0.4 0,0.8 0,1.1 0.6,0 1.2,0 1.8,0 0,1.6 0,3.1 0,4.6 z"
         class="st1" /><path
         style="fill:#ffffff"
         inkscape:connector-curvature="0"
         id="path43"
         d="m 412.5,172.2 c 0,-1.6 0,-3.1 0,-4.6 1.6,0 3.3,0 4.9,0 0,1.5 0,3 0,4.6 -0.6,0 -1.2,0 -1.8,0 0,0.4 0,0.8 0,1.2 0.6,0 1.2,0 1.8,0 0,1.5 0,3 0,4.6 -1.6,0 -3.2,0 -4.9,0 0,-0.4 0,-0.9 0,-1.3 -0.4,0 -0.8,0 -1.2,0 0,0.4 0,0.9 0,1.3 -1.6,0 -3.3,0 -4.9,0 0,-1.5 0,-3 0,-4.6 1.6,0 3.2,0 4.9,0 0,0.7 0,1.3 0,2 0.4,0 0.8,0 1.2,0 0,-0.7 0,-1.3 0,-2 0.6,0 1.2,0 1.9,0 0,-0.4 0,-0.8 0,-1.2 -0.6,0 -1.2,0 -1.9,0 z"
         class="st1" /><path
         style="fill:#ffffff"
         inkscape:connector-curvature="0"
         id="path45"
         d="m 398.2,192.4 c 0,-0.5 0,-0.9 0,-1.3 -0.4,0 -0.8,0 -1.2,0 0,0.4 0,0.9 0,1.3 -1.6,0 -3.2,0 -4.9,0 0,-1.5 0,-3.1 0,-4.6 1.6,0 3.2,0 4.8,0 0,0.7 0,1.4 0,2.1 0.4,0 0.8,0 1.3,0 0,-0.7 0,-1.4 0,-2.1 0.6,0 1.2,0 1.9,0 0,-0.4 0,-0.7 0,-1.1 -0.6,0 -1.2,0 -1.8,0 0,-1.5 0,-3 0,-4.6 1.6,0 3.2,0 4.8,0 0,1.5 0,3 0,4.6 -0.6,0 -1.2,0 -1.8,0 0,0.4 0,0.7 0,1.1 0.6,0 1.2,0 1.8,0 0,1.6 0,3.1 0,4.6 -1.7,0 -3.3,0 -4.9,0 z"
         class="st1" /><path
         style="fill:#ffffff"
         inkscape:connector-curvature="0"
         id="path47"
         d="m 446.2,192.4 c -1.6,0 -3.2,0 -4.9,0 0,-0.4 0,-0.9 0,-1.3 -0.4,0 -0.8,0 -1.2,0 0,0.4 0,0.9 0,1.3 -1.6,0 -3.2,0 -4.9,0 0,-1.5 0,-3.1 0,-4.6 1.6,0 3.2,0 4.8,0 0,0.7 0,1.4 0,2.1 0.4,0 0.8,0 1.3,0 0,-0.7 0,-1.4 0,-2.1 0.6,0 1.2,0 1.9,0 0,-0.4 0,-0.8 0,-1.1 -0.6,0 -1.2,0 -1.8,0 0,-1.5 0,-3.1 0,-4.6 1.6,0 3.2,0 4.8,0 0,1.5 0,3 0,4.6 -0.6,0 -1.2,0 -1.8,0 0,0.4 0,0.8 0,1.1 0.6,0 1.2,0 1.8,0 0,1.5 0,3 0,4.6 z"
         class="st1" /><path
         style="fill:#ffffff"
         inkscape:connector-curvature="0"
         id="path49"
         d="m 411.3,202.2 c 0,0.7 0,1.4 0,2.1 0.4,0 0.8,0 1.2,0 0,-0.7 0,-1.4 0,-2.1 0.6,0 1.2,0 1.9,0 0,-0.4 0,-0.7 0,-1.1 -0.6,0 -1.2,0 -1.8,0 0,-1.5 0,-3 0,-4.6 1.6,0 3.3,0 4.9,0 0,1.5 0,3 0,4.6 -0.6,0 -1.2,0 -1.8,0 0,0.4 0,0.7 0,1.1 0.6,0 1.2,0 1.8,0 0,1.5 0,3 0,4.6 -1.6,0 -3.3,0 -4.9,0 0,-0.4 0,-0.9 0,-1.3 -0.4,0 -0.8,0 -1.2,0 0,0.4 0,0.9 0,1.3 -1.6,0 -3.3,0 -4.9,0 0,-1.5 0,-3 0,-4.6 1.6,0 3.2,0 4.8,0 z"
         class="st1" /><path
         style="fill:#ffffff"
         inkscape:connector-curvature="0"
         id="path51"
         d="m 396.9,218.6 c 0.4,0 0.8,0 1.3,0 0,-0.7 0,-1.4 0,-2.1 0.6,0 1.2,0 1.9,0 0,-0.4 0,-0.7 0,-1.1 -0.6,0 -1.2,0 -1.8,0 0,-1.6 0,-3.1 0,-4.6 1.6,0 3.2,0 4.8,0 0,1.5 0,3.1 0,4.6 -0.6,0 -1.2,0 -1.8,0 0,0.4 0,0.7 0,1.1 0.6,0 1.2,0 1.8,0 0,1.5 0,3.1 0,4.6 -1.6,0 -3.2,0 -4.8,0 0,-0.4 0,-0.9 0,-1.3 -0.4,0 -0.8,0 -1.3,0 0,0.4 0,0.9 0,1.3 -1.6,0 -3.2,0 -4.9,0 0,-1.5 0,-3 0,-4.6 1.6,0 3.2,0 4.8,0 0,0.7 0,1.4 0,2.1 z"
         class="st1" /><path
         style="fill:#ffffff"
         inkscape:connector-curvature="0"
         id="path53"
         d="m 441.3,178 c 0,-0.5 0,-0.9 0,-1.3 -0.4,0 -0.8,0 -1.2,0 0,0.4 0,0.9 0,1.3 -1.6,0 -3.2,0 -4.9,0 0,-1.5 0,-3 0,-4.6 1.6,0 3.2,0 4.8,0 0,0.7 0,1.3 0,2 0.4,0 0.8,0 1.3,0 0,-0.7 0,-1.3 0,-2 0.6,0 1.2,0 1.9,0 0,-0.4 0,-0.8 0,-1.2 -0.6,0 -1.2,0 -1.8,0 0,-1.5 0,-3 0,-4.6 1.6,0 3.2,0 4.8,0 0,1.5 0,3 0,4.6 -0.6,0 -1.2,0 -1.8,0 0,0.4 0,0.8 0,1.2 0.6,0 1.2,0 1.8,0 0,1.5 0,3 0,4.6 -1.6,0 -3.2,0 -4.9,0 z"
         class="st1" /><path
         style="fill:#ffffff"
         inkscape:connector-curvature="0"
         id="path55"
         d="m 396.9,202.2 c 0,0.7 0,1.4 0,2.1 0.4,0 0.8,0 1.2,0 0,-0.7 0,-1.4 0,-2.1 0.6,0 1.2,0 1.9,0 0,-0.4 0,-0.7 0,-1.1 -0.6,0 -1.2,0 -1.8,0 0,-1.5 0,-3 0,-4.6 1.6,0 3.2,0 4.8,0 0,1.5 0,3 0,4.6 -0.6,0 -1.2,0 -1.8,0 0,0.4 0,0.7 0,1.1 0.6,0 1.2,0 1.8,0 0,1.5 0,3 0,4.6 -1.6,0 -3.2,0 -4.9,0 0,-0.4 0,-0.9 0,-1.3 -0.4,0 -0.8,0 -1.2,0 0,0.4 0,0.9 0,1.3 -1.6,0 -3.3,0 -4.9,0 0,-1.5 0,-3 0,-4.6 1.7,0 3.3,0 4.9,0 z"
         class="st1" /><path
         style="fill:#ffffff"
         inkscape:connector-curvature="0"
         id="path57"
         d="m 435.2,206.7 c 0,-1.5 0,-3 0,-4.6 1.6,0 3.2,0 4.9,0 0,0.7 0,1.4 0,2.1 0.4,0 0.8,0 1.2,0 0,-0.7 0,-1.4 0,-2.1 0.6,0 1.2,0 1.9,0 0,-0.4 0,-0.7 0,-1.1 -0.6,0 -1.2,0 -1.8,0 0,-1.5 0,-3.1 0,-4.6 1.6,0 3.2,0 4.8,0 0,1.5 0,3 0,4.6 -0.6,0 -1.2,0 -1.8,0 0,0.4 0,0.7 0,1.1 0.6,0 1.2,0 1.8,0 0,1.5 0,3.1 0,4.6 -1.6,0 -3.2,0 -4.8,0 0,-0.4 0,-0.9 0,-1.3 -0.4,0 -0.8,0 -1.3,0 0,0.4 0,0.9 0,1.3 -1.7,0 -3.3,0 -4.9,0 z"
         class="st1" /><path
         style="fill:#ffffff"
         inkscape:connector-curvature="0"
         id="path59"
         d="m 379,187.7 c 0,0.2 0,0.3 0,0.5 -1.7,0 -3.3,0 -5,0 0,-0.7 0,-1.4 0,-2.1 1.7,0 3.3,0 5,0 0,0.2 0,0.3 0,0.5 0.5,0 1,0 1.6,0 0,-5.7 0,-11.5 0,-17.2 1.8,0 3.5,0 5.3,0 0,-0.6 0,-1.2 0,-1.7 1.6,0 3.3,0 4.9,0 0,1.5 0,3 0,4.6 -1.6,0 -3.2,0 -4.9,0 0,-0.5 0,-1.1 0,-1.7 -1.4,0 -2.8,0 -4.2,0 0,5.7 0,11.5 0,17.2 -0.9,-0.1 -1.8,-0.1 -2.7,-0.1 z"
         class="st1" /><path
         style="fill:#ffffff"
         inkscape:connector-curvature="0"
         id="path61"
         d="m 383.1,190.2 c 0,-2.2 0,-4.3 0,-6.5 0.9,0 1.8,0 2.8,0 0,-0.6 0,-1.1 0,-1.7 1.6,0 3.2,0 4.9,0 0,1.5 0,3 0,4.6 -1.6,0 -3.2,0 -4.9,0 0,-0.5 0,-1.1 0,-1.7 -0.6,0 -1.1,0 -1.6,0 0,2.1 0,4.3 0,6.4 -1.8,0 -3.5,0 -5.3,0 0,0.2 0,0.3 0,0.5 -1.7,0 -3.4,0 -5,0 0,-0.7 0,-1.4 0,-2.1 1.7,0 3.3,0 5,0 0,0.2 0,0.3 0,0.5 1.4,0 2.7,0 4.1,0 z"
         class="st1" /><path
         style="fill:#ffffff"
         inkscape:connector-curvature="0"
         id="path63"
         d="m 431.8,159 c 0,1.5 0,3 0,4.6 -1.6,0 -3.3,0 -4.9,0 0,-0.4 0,-0.9 0,-1.3 -0.4,0 -0.8,0 -1.2,0 0,0.4 0,0.9 0,1.3 -1.6,0 -3.3,0 -4.9,0 0,-1.5 0,-3 0,-4.6 1.6,0 3.3,0 4.9,0 0,0.7 0,1.4 0,2.1 0.4,0 0.8,0 1.2,0 0,-0.7 0,-1.4 0,-2.1 1.7,0 3.3,0 4.9,0 z"
         class="st1" /><path
         style="fill:#ffffff"
         inkscape:connector-curvature="0"
         id="path65"
         d="m 412.5,163.6 c 0,-0.5 0,-0.9 0,-1.3 -0.4,0 -0.8,0 -1.2,0 0,0.4 0,0.9 0,1.3 -1.6,0 -3.2,0 -4.9,0 0,-1.5 0,-3 0,-4.6 1.6,0 3.2,0 4.9,0 0,0.7 0,1.4 0,2.1 0.4,0 0.8,0 1.2,0 0,-0.7 0,-1.4 0,-2.1 1.7,0 3.3,0 4.9,0 0,1.5 0,3 0,4.6 -1.6,0 -3.2,0 -4.9,0 z"
         class="st1" /><path
         style="fill:#ffffff"
         inkscape:connector-curvature="0"
         id="path67"
         d="m 446.2,163.6 c -1.6,0 -3.2,0 -4.9,0 0,-0.4 0,-0.9 0,-1.3 -0.4,0 -0.8,0 -1.3,0 0,0.4 0,0.9 0,1.3 -1.6,0 -3.2,0 -4.9,0 0,-1.5 0,-3 0,-4.6 1.6,0 3.2,0 4.9,0 0,0.7 0,1.4 0,2.1 0.4,0 0.8,0 1.3,0 0,-0.7 0,-1.4 0,-2.1 1.6,0 3.2,0 4.9,0 0,1.5 0,3 0,4.6 z"
         class="st1" /><path
         style="fill:#ffffff"
         inkscape:connector-curvature="0"
         id="path69"
         d="m 396.9,162.2 c 0,0.4 0,0.9 0,1.3 -1.6,0 -3.2,0 -4.9,0 0,-1.5 0,-3 0,-4.6 1.6,0 3.2,0 4.8,0 0,0.7 0,1.4 0,2.1 0.4,0 0.8,0 1.3,0 0,-0.7 0,-1.4 0,-2.1 1.6,0 3.2,0 4.9,0 0,1.5 0,3 0,4.6 -1.6,0 -3.2,0 -4.8,0 0,-0.4 0,-0.9 0,-1.3 -0.4,0 -0.8,0 -1.3,0 z"
         class="st1" /><path
         style="fill:#ffffff"
         inkscape:connector-curvature="0"
         id="path71"
         d="m 379,195 c 0,0.2 0,0.3 0,0.5 -1.7,0 -3.3,0 -5,0 0,-0.7 0,-1.4 0,-2.1 1.7,0 3.3,0 5,0 0,0.2 0,0.3 0,0.5 2.4,0 4.7,0 7.1,0 0,0.9 0,1.7 0,2.6 1.6,0 3.1,0 4.7,0 0,1.5 0,3.1 0,4.6 -1.6,0 -3.2,0 -4.8,0 0,-0.6 0,-1.1 0,-1.7 -0.4,0 -0.7,0 -1,0 0,-1.4 0,-2.9 0,-4.3 -2.1,-0.1 -4,-0.1 -6,-0.1 z"
         class="st1" /><path
         style="fill:#ffffff"
         inkscape:connector-curvature="0"
         id="path73"
         d="m 412.5,229.8 c 0,-1.5 0,-3.1 0,-4.6 1.6,0 3.3,0 4.9,0 0,1.5 0,3.1 0,4.6 -1.6,0 -3.2,0 -4.9,0 z"
         class="st1" /><path
         style="fill:#ffffff"
         inkscape:connector-curvature="0"
         id="path75"
         d="m 431.8,225.2 c 0,1.5 0,3.1 0,4.6 -1.6,0 -3.3,0 -4.9,0 0,-1.5 0,-3.1 0,-4.6 1.7,0 3.3,0 4.9,0 z"
         class="st1" /><path
         style="fill:#ffffff"
         inkscape:connector-curvature="0"
         id="path77"
         d="m 398.2,225.2 c 1.6,0 3.2,0 4.8,0 0,1.5 0,3.1 0,4.6 -1.6,0 -3.2,0 -4.8,0 0,-1.5 0,-3.1 0,-4.6 z"
         class="st1" /><path
         style="fill:#ffffff"
         inkscape:connector-curvature="0"
         id="path79"
         d="m 446.2,229.8 c -1.6,0 -3.2,0 -4.8,0 0,-1.5 0,-3.1 0,-4.6 1.6,0 3.2,0 4.8,0 0,1.5 0,3 0,4.6 z"
         class="st1" /><path
         style="fill:#ffffff"
         inkscape:connector-curvature="0"
         id="path81"
         d="m 361.7,196.9 c 0,0.7 0,1.4 0,2.1 -1.7,0 -3.3,0 -5,0 0,-0.7 0,-1.4 0,-2.1 1.7,0 3.3,0 5,0 z"
         class="st1" /><path
         style="fill:#ffffff"
         inkscape:connector-curvature="0"
         id="path83"
         d="m 361.7,193.3 c 0,0.7 0,1.4 0,2.1 -1.7,0 -3.3,0 -5,0 0,-0.7 0,-1.4 0,-2.1 1.7,0 3.3,0 5,0 z"
         class="st1" /><path
         style="fill:#ffffff"
         inkscape:connector-curvature="0"
         id="path85"
         d="m 356.7,188.2 c 0,-0.7 0,-1.4 0,-2.1 1.7,0 3.3,0 5,0 0,0.7 0,1.4 0,2.1 -1.6,0 -3.3,0 -5,0 z"
         class="st1" /><path
         style="fill:#ffffff"
         inkscape:connector-curvature="0"
         id="path87"
         d="m 379,182.5 c 0,0.7 0,1.4 0,2.1 -1.7,0 -3.3,0 -5,0 0,-0.7 0,-1.4 0,-2.1 1.6,0 3.3,0 5,0 z"
         class="st1" /><path
         style="fill:#ffffff"
         inkscape:connector-curvature="0"
         id="path89"
         d="m 361.7,182.5 c 0,0.7 0,1.4 0,2.1 -1.7,0 -3.3,0 -5,0 0,-0.7 0,-1.4 0,-2.1 1.7,0 3.3,0 5,0 z"
         class="st1" /></g><text
       style="font-size:7.40415335px;font-family:HKGrotesk-Bold;fill:#ffffff"
       y="-147.38812"
       x="345.88538"
       id="text91"
       class="st1 st2 st3">led array</text>
</g></svg>