<?xml version="1.0" encoding="UTF-8" standalone="no"?>
<!-- Generator: Adobe Illustrator 19.0.0, SVG Export Plug-In . SVG Version: 6.00 Build 0)  -->

<svg
   xmlns:dc="http://purl.org/dc/elements/1.1/"
   xmlns:cc="http://creativecommons.org/ns#"
   xmlns:rdf="http://www.w3.org/1999/02/22-rdf-syntax-ns#"
   xmlns:svg="http://www.w3.org/2000/svg"
   xmlns="http://www.w3.org/2000/svg"
   xmlns:sodipodi="http://sodipodi.sourceforge.net/DTD/sodipodi-0.dtd"
   xmlns:inkscape="http://www.inkscape.org/namespaces/inkscape"
   version="1.1"
   id="Livello_1"
   x="0px"
   y="0px"
   viewBox="0 0 132.87402 124.01575"
   xml:space="preserve"
   inkscape:version="0.91 r13725"
   sodipodi:docname="capacitive sensor-transmitter.svg"
   width="37.5mm"
   height="35mm"><metadata
     id="metadata191"><rdf:RDF><cc:Work
         rdf:about=""><dc:format>image/svg+xml</dc:format><dc:type
           rdf:resource="http://purl.org/dc/dcmitype/StillImage" /><dc:title></dc:title></cc:Work></rdf:RDF></metadata><defs
     id="defs189" /><sodipodi:namedview
     pagecolor="#ffffff"
     bordercolor="#666666"
     borderopacity="1"
     objecttolerance="10"
     gridtolerance="10"
     guidetolerance="10"
     inkscape:pageopacity="0"
     inkscape:pageshadow="2"
     inkscape:window-width="1090"
     inkscape:window-height="570"
     id="namedview187"
     showgrid="false"
     units="mm"
     inkscape:zoom="2.9667058"
     inkscape:cx="60.525258"
     inkscape:cy="50.931378"
     inkscape:window-x="358"
     inkscape:window-y="55"
     inkscape:window-maximized="0"
     inkscape:current-layer="Livello_1" /><style
     type="text/css"
     id="style3">
	.st0{fill:none;stroke:#FF0000;stroke-width:0.25;stroke-miterlimit:10;}
	.st1{enable-background:new    ;}
	.st2{fill:#FFFFFF;}
	.st3{fill:none;stroke:#CC3300;stroke-width:0.864;stroke-linecap:round;stroke-linejoin:round;stroke-miterlimit:10;}
</style><g
     id="_x30_"
     transform="translate(0,-775.98425)" /><g
     id="g3519"
     transform="translate(-667.7876,399.54175)"><g
       transform="matrix(1.2499924,0,0,1.2499924,-167.3949,-900.65545)"
       id="_x32_0"><path
         inkscape:connector-curvature="0"
         id="path6"
         d="m 753.6,498.7 -64.6,0 c -10.7,0 -19.4,-8.7 -19.4,-19.4 l 0,-57.6 c 0,-10.7 8.7,-19.4 19.4,-19.4 l 64.6,0 c 10.7,0 19.4,8.7 19.4,19.4 l 0,57.6 c 0,10.7 -8.7,19.4 -19.4,19.4 z" /><path
         style="fill:none;stroke:#ff0000;stroke-width:0.25;stroke-miterlimit:10"
         inkscape:connector-curvature="0"
         id="path8"
         d="m 688.9,497 c -9.8,0 -17.7,-8 -17.7,-17.7 l 0,-57.6 c 0,-9.8 8,-17.7 17.7,-17.7 l 64.6,0 c 9.8,0 17.7,8 17.7,17.7 l 0,57.6 c 0,9.8 -8,17.7 -17.7,17.7 l -64.6,0 z"
         class="st0" /><g
         style="enable-background:new"
         id="g10"
         class="st1"><path
           style="fill:#ffffff"
           inkscape:connector-curvature="0"
           id="path12"
           d="m 701.1,486.6 0,0.7 -2,0 0,-0.7 2,0 z"
           class="st2" /></g><g
         style="enable-background:new"
         id="g14"
         class="st1"><path
           style="fill:#ffffff"
           inkscape:connector-curvature="0"
           id="path16"
           d="m 756.3,488.3 0,0.7 -2,0 0,-0.7 2,0 z"
           class="st2" /></g><g
         style="enable-background:new"
         id="g18"
         class="st1"><path
           style="fill:#ffffff"
           inkscape:connector-curvature="0"
           id="path20"
           d="m 763.8,488.5 -1,0 0,1.1 -0.5,0 0,-1.1 -1,0 0,-0.5 1,0 0,-1 0.5,0 0,1.1 1,0 0,0.4 z"
           class="st2" /></g><g
         style="enable-background:new"
         id="g22"
         class="st1"><path
           style="fill:#ffffff"
           inkscape:connector-curvature="0"
           id="path24"
           d="m 701.4,477.3 -1,0 0,1.1 -0.5,0 0,-1.1 -1,0 0,-0.5 1,0 0,-1.1 0.5,0 0,1.1 1,0 0,0.5 z"
           class="st2" /></g><g
         id="g26"><g
           style="enable-background:new"
           id="g28"
           class="st1"><path
             style="fill:#ffffff"
             inkscape:connector-curvature="0"
             id="path30"
             d="m 692.9,418.2 -0.7,0.4 0,0.5 0.7,0 0,0.3 -1.8,0 0,-0.9 c 0,-0.3 0.2,-0.6 0.5,-0.6 0.2,0 0.4,0.1 0.5,0.4 l 0.8,-0.4 0,0.3 z m -1,0.9 0,-0.5 c 0,-0.2 -0.1,-0.3 -0.3,-0.3 -0.1,0 -0.3,0.1 -0.3,0.3 l 0,0.5 0.6,0 z"
             class="st2" /><path
             style="fill:#ffffff"
             inkscape:connector-curvature="0"
             id="path32"
             d="m 692.7,416.9 c 0,-0.2 -0.1,-0.4 -0.3,-0.4 -0.2,0 -0.2,0.2 -0.3,0.4 -0.1,0.4 -0.1,0.7 -0.5,0.7 -0.3,0 -0.5,-0.2 -0.5,-0.7 0,-0.5 0.2,-0.7 0.6,-0.7 l 0,0.3 c -0.2,0 -0.4,0.2 -0.4,0.4 0,0.2 0.1,0.4 0.3,0.4 0.1,0 0.2,-0.1 0.3,-0.4 0.1,-0.2 0.1,-0.6 0.5,-0.6 0.3,0 0.5,0.3 0.5,0.7 0,0.5 -0.3,0.8 -0.7,0.8 l 0,-0.3 c 0.3,-0.1 0.5,-0.3 0.5,-0.6 z"
             class="st2" /><path
             style="fill:#ffffff"
             inkscape:connector-curvature="0"
             id="path34"
             d="m 691.4,414.7 0,0.6 1.5,0 0,0.3 -1.5,0 0,0.6 -0.2,0 0,-1.4 0.2,0 z"
             class="st2" /></g></g><g
         id="g36"><g
           style="enable-background:new"
           id="g38"
           class="st1"><path
             style="fill:#ffffff"
             inkscape:connector-curvature="0"
             id="path40"
             d="m 711.7,419.2 c 0,0.4 -0.3,0.6 -0.7,0.6 -0.4,0 -0.6,-0.2 -0.7,-0.6 l 0.3,0 c 0,0.2 0.2,0.3 0.4,0.3 0.2,0 0.4,-0.1 0.4,-0.4 0,-0.2 -0.2,-0.4 -0.4,-0.4 -0.1,0 -0.3,0.1 -0.4,0.2 l -0.2,-0.1 0,-0.9 0,0 1.2,0 0,0.2 -0.9,0 0,0.5 c 0.1,-0.1 0.2,-0.2 0.4,-0.2 0.4,0.2 0.6,0.4 0.6,0.8 z"
             class="st2" /></g></g><g
         id="g42"><g
           style="enable-background:new"
           id="g44"
           class="st1"><path
             style="fill:#ffffff"
             inkscape:connector-curvature="0"
             id="path46"
             d="m 719.4,419.4 -0.2,0 0,0.4 -0.3,0 0,-0.4 -0.9,0 0,-0.2 c 0.2,-0.4 0.4,-0.8 0.5,-1.2 l 0.3,0 c -0.1,0.4 -0.2,0.8 -0.4,1.1 l 0.6,0 0,-0.7 0.3,0 0,0.7 0.2,0 0,0.3 z"
             class="st2" /></g></g><g
         id="g48"><g
           style="enable-background:new"
           id="g50"
           class="st1"><path
             style="fill:#ffffff"
             inkscape:connector-curvature="0"
             id="path52"
             d="m 727.1,419.3 c 0,0.3 -0.3,0.5 -0.6,0.5 -0.4,0 -0.6,-0.2 -0.7,-0.6 l 0.3,0 c 0,0.2 0.2,0.3 0.4,0.3 0.2,0 0.3,-0.1 0.3,-0.3 0,-0.2 -0.2,-0.3 -0.4,-0.3 l -0.1,0 0,-0.2 0.1,0 c 0.2,0 0.3,-0.1 0.3,-0.3 0,-0.2 -0.1,-0.3 -0.3,-0.3 -0.2,0 -0.3,0.1 -0.3,0.3 l -0.3,0 c 0,-0.4 0.3,-0.6 0.6,-0.6 0.4,0 0.6,0.2 0.6,0.5 0,0.2 -0.1,0.3 -0.3,0.4 0.2,0.2 0.4,0.3 0.4,0.6 z"
             class="st2" /></g></g><g
         id="g54"><g
           style="enable-background:new"
           id="g56"
           class="st1"><path
             style="fill:#ffffff"
             inkscape:connector-curvature="0"
             id="path58"
             d="m 734.9,419.5 0,0.2 -1.3,0 0,-0.2 0,0 0.6,-0.5 c 0.3,-0.2 0.3,-0.4 0.3,-0.5 0,-0.2 -0.1,-0.3 -0.3,-0.3 -0.2,0 -0.3,0.1 -0.3,0.4 l -0.3,0 c 0,-0.4 0.2,-0.6 0.6,-0.6 0.4,0 0.6,0.2 0.6,0.5 0,0.2 -0.2,0.4 -0.5,0.7 l -0.4,0.3 1,0 z"
             class="st2" /></g></g><g
         id="g60"><g
           style="enable-background:new"
           id="g62"
           class="st1"><path
             style="fill:#ffffff"
             inkscape:connector-curvature="0"
             id="path64"
             d="m 743,418 0,1.8 -0.3,0 0,-1.5 -0.5,0.2 0,-0.3 0.6,-0.2 0,0 0,0 0.2,0 z"
             class="st2" /></g></g><g
         id="g66"><g
           style="enable-background:new"
           id="g68"
           class="st1"><path
             style="fill:#ffffff"
             inkscape:connector-curvature="0"
             id="path70"
             d="m 751.5,418.9 c 0,0.6 -0.3,0.9 -0.7,0.9 -0.4,0 -0.7,-0.3 -0.7,-0.9 0,-0.6 0.3,-0.9 0.7,-0.9 0.4,0 0.7,0.3 0.7,0.9 z m -1.2,0 c 0,0.4 0.2,0.7 0.4,0.7 0.3,0 0.4,-0.2 0.4,-0.7 0,-0.5 -0.2,-0.7 -0.4,-0.7 -0.2,0 -0.4,0.2 -0.4,0.7 z"
             class="st2" /></g></g><g
         id="g72"><g
           style="enable-background:new"
           id="g74"
           class="st1"><path
             style="fill:#ffffff"
             inkscape:connector-curvature="0"
             id="path76"
             d="m 738.7,472.5 c 0,0.2 0.1,0.4 0.3,0.4 0.2,0 0.2,-0.2 0.3,-0.4 0.1,-0.3 0.1,-0.7 0.5,-0.7 0.3,0 0.5,0.2 0.5,0.7 0,0.4 -0.2,0.7 -0.6,0.7 l 0,-0.3 c 0.2,0 0.4,-0.2 0.4,-0.4 0,-0.2 -0.1,-0.4 -0.3,-0.4 -0.1,0 -0.2,0.1 -0.3,0.4 -0.1,0.2 -0.1,0.6 -0.5,0.6 -0.3,0 -0.5,-0.3 -0.5,-0.7 0,-0.5 0.3,-0.8 0.7,-0.8 l 0,0.3 c -0.4,0.2 -0.5,0.3 -0.5,0.6 z"
             class="st2" /><path
             style="fill:#ffffff"
             inkscape:connector-curvature="0"
             id="path78"
             d="m 738.5,474.3 c 0,-0.5 0.4,-0.9 0.9,-0.9 0.5,0 0.9,0.3 0.9,0.9 0,0.4 -0.2,0.7 -0.6,0.8 l 0,-0.3 c 0.2,0 0.4,-0.2 0.4,-0.5 0,-0.3 -0.3,-0.6 -0.6,-0.6 -0.4,0 -0.6,0.2 -0.6,0.6 0,0.2 0.1,0.4 0.4,0.5 l 0,0.3 c -0.6,-0.1 -0.8,-0.4 -0.8,-0.8 z"
             class="st2" /><path
             style="fill:#ffffff"
             inkscape:connector-curvature="0"
             id="path80"
             d="m 739.2,476.1 0,-0.4 -0.8,0 0,-0.3 1.8,0 0,0.3 -0.7,0 0,0.4 0.7,0.4 0,0.3 -0.9,-0.5 -0.9,0.6 0,-0.4 0.8,-0.4 z"
             class="st2" /></g></g><g
         id="g82"><g
           style="enable-background:new"
           id="g84"
           class="st1"><path
             style="fill:#ffffff"
             inkscape:connector-curvature="0"
             id="path86"
             d="m 730.5,486.4 1.2,1.3 -0.2,0.2 -0.9,-0.9 0.1,0.9 0,0 -0.9,-0.1 0.9,0.9 -0.2,0.2 -1.2,-1.3 0.2,-0.2 1,0.1 -0.1,-1 0.1,-0.1 z"
             class="st2" /><path
             style="fill:#ffffff"
             inkscape:connector-curvature="0"
             id="path88"
             d="m 731.4,485.9 0.9,0.9 0.3,-0.3 0.2,0.2 -0.8,0.8 -0.2,-0.2 0.3,-0.3 -0.9,-0.9 -0.3,0.3 -0.2,-0.2 0.8,-0.8 0.2,0.2 -0.3,0.3 z"
             class="st2" /></g></g><g
         id="g90"><g
           style="enable-background:new"
           id="g92"
           class="st1"><path
             style="fill:#ffffff"
             inkscape:connector-curvature="0"
             id="path94"
             d="m 725.3,473.6 0,1.8 -0.3,0 0,-1.3 -0.6,0.7 0,0 -0.6,-0.7 0,1.3 -0.3,0 0,-1.8 0.3,0 0.6,0.7 0.6,-0.7 0.3,0 z"
             class="st2" /><path
             style="fill:#ffffff"
             inkscape:connector-curvature="0"
             id="path96"
             d="m 727.4,474.5 c 0,0.5 -0.4,0.9 -0.9,0.9 -0.5,0 -0.9,-0.4 -0.9,-0.9 0,-0.5 0.4,-0.9 0.9,-0.9 0.5,0 0.9,0.4 0.9,0.9 z m -1.5,0 c 0,0.4 0.2,0.6 0.6,0.6 0.3,0 0.6,-0.3 0.6,-0.6 0,-0.4 -0.2,-0.7 -0.6,-0.7 -0.3,0.1 -0.6,0.3 -0.6,0.7 z"
             class="st2" /></g></g></g><g
       transform="matrix(1.2499924,0,0,1.2499924,-167.3949,-900.65545)"
       id="_x31_"><g
         id="LWPOLYLINE_174_"><g
           id="g101"><path
             style="fill:none;stroke:#cc3300;stroke-width:0.86400002;stroke-linecap:round;stroke-linejoin:round;stroke-miterlimit:10"
             inkscape:connector-curvature="0"
             id="path103"
             d="M 737.5,455.3"
             class="st3" /></g></g><g
         id="LWPOLYLINE_195_"><g
           id="g106"><path
             style="fill:none;stroke:#cc3300;stroke-width:0.86400002;stroke-linecap:round;stroke-linejoin:round;stroke-miterlimit:10"
             inkscape:connector-curvature="0"
             id="path108"
             d="M 713.9,453.1"
             class="st3" /></g></g><g
         id="LWPOLYLINE_375_"><g
           id="g111"><path
             style="fill:none;stroke:#cc3300;stroke-width:0.86400002;stroke-linecap:round;stroke-linejoin:round;stroke-miterlimit:10"
             inkscape:connector-curvature="0"
             id="path113"
             d="M 680.8,457.5"
             class="st3" /></g></g><g
         id="g115"><path
           style="fill:#ffffff"
           inkscape:connector-curvature="0"
           id="path117"
           d="m 683.3,437.8 3.4,0 c 0.1,0 0.1,0 0.2,0 l 0.1,-0.1 0,0 2.5,-2.5 2.3,0 0,7.1 5.7,0 0,-7.3 0.4,0 6.1,6.1 0,15.8 0,0 c 0,0.1 0,0.1 0,0.1 0,0 0,0.1 0.1,0.1 l 0,0 0,0 0,0 5.2,5.2 0,0 0.1,0.1 0,0 0.1,0 0,0 0,0 0,0 0,0 2.2,0 0,0.1 4.3,0 0,-1 -4.3,0 0,0 -2,0 -4.9,-4.9 0,-15.8 0,0 c 0,-0.1 0,-0.1 0,-0.1 l -0.1,-0.1 0,0 -6.4,-6.4 0,0 0,0 0,0 -0.1,-0.1 -0.1,0 0,0 -0.6,0 0,-7.4 -5.7,0 0,7.6 -2.4,0 c 0,0 0,0 -0.1,0 l -0.1,0 c -0.1,0 -0.1,0.1 -0.1,0.1 l 0,0 -2.5,2.5 -3.2,0 0,-1.2 -5.1,0 0,3.2 5.1,0 0,-1.1 -0.1,0 z"
           class="st2" /><path
           style="fill:#ffffff"
           inkscape:connector-curvature="0"
           id="path119"
           d="m 697.4,469.3 0,-7.3 2.9,0 2.8,2.8 0,0 0.1,0.1 c 0.1,0 0.1,0 0.2,0 l 8.3,0 0,0.1 2.9,0 0,-1.2 -2.9,0 0,0.1 -8.1,0 -2.8,-2.8 0,0 -0.1,-0.1 c -0.1,0 -0.1,0 -0.2,0 l 0,0 -3.1,0 0,-7.4 -5.7,0 0,7.4 -0.2,0 -3.8,-3.8 0,0 -0.1,-0.1 c -0.1,0 -0.1,0 -0.2,0 l -4.1,0 0,-1.2 -5.1,0 0,3.2 5.1,0 0,-1.1 4,0 3.8,3.8 0,0 0,0 c 0,0 0,0 0.1,0 0,0 0,0 0.1,0 0.1,0 0.1,0 0.2,0 l 0,0 0,0 0.3,0 0,7.4 5.6,0 0,0.1 z"
           class="st2" /><rect
           style="fill:#ffffff"
           id="rect121"
           height="1.2"
           width="2.9000001"
           class="st2"
           y="448"
           x="711.70001" /><rect
           style="fill:#ffffff"
           id="rect123"
           height="1"
           width="4.3000002"
           class="st2"
           y="450.29999"
           x="711.70001" /><path
           style="fill:#ffffff"
           inkscape:connector-curvature="0"
           id="path125"
           d="m 716,455.8 0,-1 -4.3,0 0,0.1 -2.3,0 0,0 0,0 -0.1,0 0,0 c 0,0 -0.1,0 -0.1,0.1 l 0,0 -0.9,0.9 0,0 -0.1,0.1 0,0 0,0.1 0,0 0,1.7 0,0 c 0,0.1 0,0.1 0,0.1 0,0 0,0.1 0.1,0.1 l 0,0 1.9,1.9 0,0 0.1,0.1 c 0,0 0,0 0.1,0 l 0.1,0 0,0 1.4,0 0,0.1 4.3,0 0,0 4,0 2.3,2.3 0,0 0.1,0.1 0.1,0 0.1,0 0,0 15,0 0,0 0.1,0 c 0,0 0,0 0.1,0 0,0 0.1,0 0.1,-0.1 l 0,0 1.7,0 0,-0.1 0.8,0 c 0.1,0 0.1,0 0.2,0 0,0 0.1,0 0.1,-0.1 0,0 0,0 0.1,0 l 5.2,-5.2 0.2,0 0,1.8 5.1,0 0,-1.8 0,0 0,1.8 2.3,0 0,2 -4,4 c -0.4,-0.3 -0.8,-0.5 -1.4,-0.5 -1.2,0 -2.2,1 -2.2,2.2 l 0,4.3 c 0,1.1 0.7,1.9 1.7,2.1 l 0,7 -10.2,10.2 -17.4,0 -5.8,-5.8 0,-4.4 0,0 0,-0.1 0,0 0,0 c 0,0 0,-0.1 -0.1,-0.1 l 0,0 -3,-3 0,0 -0.1,-0.1 c -0.1,0 -0.1,0 -0.2,0 l -0.1,0 c -0.2,-1 -1.1,-1.7 -2.1,-1.7 l -4.3,0 c -1.2,0 -2.2,1 -2.2,2.2 0,1.2 1,2.2 2.2,2.2 l 4.3,0 c 1,0 1.9,-0.7 2.1,-1.7 l 2.7,2.7 0,4.4 0,0 0,0.1 0,0 c 0,0 0,0.1 0.1,0.1 l 0,0 6.1,6.1 0,0 0.1,0.1 c 0.1,0 0.1,0 0.2,0 l 17.8,0 0,0 0,0 c 0.1,0 0.1,0 0.2,0 0,0 0.1,0 0.1,-0.1 l 0,0 10.4,-10.4 c 0,0 0,-0.1 0.1,-0.1 0,0 0,0 0,-0.1 l 0,0 c 0,-0.1 0,-0.1 0,-0.2 l 0,-7.2 c 1,-0.2 1.7,-1.1 1.7,-2.1 l 0,-4.3 c 0,-0.4 -0.1,-0.7 -0.2,-1 l 4.2,-4.2 c 0,0 0,-0.1 0.1,-0.1 0,0 0,0 0,-0.1 0,-0.1 0,-0.1 0,-0.2 l 0,-2.2 2,0 0,-1.8 0,0 0,1.8 5.1,0 0,-4.5 -5.1,0 0,1.8 0,0 0,-1.8 -5.1,0 0,1.8 0,0 0,-1.8 -5.1,0 0,1.8 -0.3,0 c -0.1,0 -0.1,0 -0.2,0 0,0 -0.1,0 -0.1,0.1 0,0 0,0 -0.1,0 l -5.2,5.2 -0.6,0 0,-0.1 -4.3,0 0,0.3 -12.6,0 -2.3,-2.3 c 0,0 0,0 -0.1,0 0,0 -0.1,0 -0.1,-0.1 l 0,0 c -0.1,0 -0.1,0 -0.2,0 l -4.3,0 0,-0.1 -4.3,0 0,0.1 -1.2,0 -1.6,-1.6 0,-1.4 0.7,-0.7 2.1,0 0,0.1 4.3,0 0,0.2 z"
           class="st2" /><rect
           style="fill:#ffffff"
           id="rect127"
           height="2.9000001"
           width="1.2"
           class="st2"
           y="467.60001"
           x="717.20001" /><rect
           style="fill:#ffffff"
           id="rect129"
           height="4.3000002"
           width="1"
           class="st2"
           y="466.10001"
           x="719.5" /><rect
           style="fill:#ffffff"
           id="rect131"
           height="4.3000002"
           width="1"
           class="st2"
           y="466.10001"
           x="721.79999" /><rect
           style="fill:#ffffff"
           id="rect133"
           height="4.3000002"
           width="1"
           class="st2"
           y="466.10001"
           x="724" /><rect
           style="fill:#ffffff"
           id="rect135"
           height="4.3000002"
           width="1"
           class="st2"
           y="466.10001"
           x="726.29999" /><rect
           style="fill:#ffffff"
           id="rect137"
           height="4.3000002"
           width="1"
           class="st2"
           y="466.10001"
           x="728.59998" /><rect
           style="fill:#ffffff"
           id="rect139"
           height="1"
           width="4.3000002"
           class="st2"
           y="459.39999"
           x="735.29999" /><rect
           style="fill:#ffffff"
           id="rect141"
           height="1"
           width="4.3000002"
           class="st2"
           y="457.10001"
           x="735.29999" /><rect
           style="fill:#ffffff"
           id="rect143"
           height="1"
           width="4.3000002"
           class="st2"
           y="452.60001"
           x="735.29999" /><path
           style="fill:#ffffff"
           inkscape:connector-curvature="0"
           id="path145"
           d="m 734.2,442.5 -0.2,0 0,-4.1 2.3,-2.3 c 0,0 0,0 0,-0.1 0,0 0,-0.1 0.1,-0.1 l 0,0 c 0,-0.1 0,-0.1 0,-0.2 l 0,-3.3 2.5,0 0,-3.6 -5.4,0 0,3.6 2,0 0,3.1 -2.3,2.3 c 0,0 0,0 0,0.1 0,0 0,0.1 -0.1,0.1 l 0,0 c 0,0.1 0,0.1 0,0.2 l 0,4.3 -0.1,0 0,2.9 1.2,0 0,-2.9 z"
           class="st2" /><rect
           style="fill:#ffffff"
           id="rect147"
           height="4.3000002"
           width="1"
           class="st2"
           y="442.5"
           x="721.79999" /><rect
           style="fill:#ffffff"
           id="rect149"
           height="4.3000002"
           width="1"
           class="st2"
           y="442.5"
           x="719.5" /><rect
           style="fill:#ffffff"
           id="rect151"
           height="2.9000001"
           width="1.2"
           class="st2"
           y="442.5"
           x="717.20001" /><path
           style="fill:#ffffff"
           inkscape:connector-curvature="0"
           id="path153"
           d="m 755.5,432.6 0,-3.6 -5.4,0 0,3.6 2.3,0 0,0.5 -11.3,11.3 0,0 0,0 0,0 c 0,0 0,0.1 -0.1,0.1 l 0,0.1 0,0 0,0 0,0 0,5.7 -1.4,0 0,-0.1 -4.3,0 0,1 4.3,0 0,-0.1 1.7,0 0.1,0 0.1,0 0.1,-0.1 0,0 0,0 0,0 0,0 0,0 c 0,0 0,-0.1 0.1,-0.1 0,0 0,0 0,-0.1 0,-0.1 0,-0.1 0,-0.2 l 0,-5.9 11.3,-11.3 c 0,0 0,0 0,-0.1 0,0 0,-0.1 0.1,-0.1 0,-0.1 0,-0.1 0,-0.2 l 0,0 0,-0.7 2.4,0 0,0.3 z"
           class="st2" /><path
           style="fill:#ffffff"
           inkscape:connector-curvature="0"
           id="path155"
           d="m 739,419.6 -2.3,0 0,-5 c 0.8,-0.3 1.4,-1 1.4,-1.9 l 0,-4 c 0,-1.1 -0.9,-2 -2,-2 -1.1,0 -2,0.9 -2,2 l 0,4 c 0,1 0.8,1.9 1.8,2 l 0,4.9 -2.3,0 0,3.6 5.4,0 0,-3.6 0,0 z"
           class="st2" /><path
           style="fill:#ffffff"
           inkscape:connector-curvature="0"
           id="path157"
           d="m 731.1,419.6 -2.3,0 0,-1.9 0.6,-0.6 0,0 0,0 c 0,0 0,0 0,-0.1 0,0 0,-0.1 0.1,-0.1 l 0,-0.1 0,0 0,0 0,0 0,-2.3 c 0.8,-0.2 1.4,-1 1.4,-1.9 l 0,-4 c 0,-1.1 -0.9,-2 -2,-2 -1.1,0 -2,0.9 -2,2 l 0,4 c 0,1 0.8,1.8 1.7,2 l 0,2 -0.6,0.6 c 0,0 0,0 0,0.1 0,0 0,0.1 -0.1,0.1 0,0.1 0,0.1 0,0.2 l 0,2.1 -2.3,0 0,3.6 5.4,0 0.1,-3.7 0,0 z"
           class="st2" /><path
           style="fill:#ffffff"
           inkscape:connector-curvature="0"
           id="path159"
           d="m 723.3,419.6 -2.3,0 0,-1.4 1.2,-1.2 0,0 0,0 c 0,0 0,0 0,-0.1 0,0 0,0 0,-0.1 0,-0.1 0,-0.1 0,-0.2 l 0,-2.1 c 0.8,-0.3 1.4,-1 1.4,-1.9 l 0,-4 c 0,-1.1 -0.9,-2 -2,-2 -1.1,0 -2,0.9 -2,2 l 0,4 c 0,1 0.8,1.9 1.8,2 l 0,1.9 -1.2,1.2 c 0,0 0,0 0,0.1 0,0 0,0.1 -0.1,0.1 l 0,0 c 0,0.1 0,0.1 0,0.2 l 0,1.6 -2.3,0 0,3.6 5.4,0 0.1,-3.7 0,0 z"
           class="st2" /><path
           style="fill:#ffffff"
           inkscape:connector-curvature="0"
           id="path161"
           d="m 715.7,419.6 -2.3,0 0,-0.6 1.5,-1.5 0,0 0.1,-0.1 0,-0.1 0,0 0,-2.5 c 0.9,-0.2 1.5,-1 1.5,-1.9 l 0,-4 c 0,-1.1 -0.9,-2 -2,-2 -1.1,0 -2,0.9 -2,2 l 0,4 c 0,1 0.7,1.8 1.7,2 l 0,2.3 -1.5,1.5 0,0 -0.1,0.1 0,0 0,0.1 0,0 0,0.8 -2.3,0 0,3.6 5.4,0 0,-3.7 0,0 z"
           class="st2" /><path
           style="fill:#ffffff"
           inkscape:connector-curvature="0"
           id="path163"
           d="m 750.1,414.6 0,1.8 c 0,0.1 0,0.1 0,0.2 0,0 0,0.1 0.1,0.1 0,0 0,0 0,0.1 l 2.2,2.2 0,0.7 -2.3,0 0,3.6 5.4,0 0,-3.6 -2.3,0 0,-0.9 c 0,-0.1 0,-0.1 0,-0.2 0,0 0,-0.1 -0.1,-0.1 0,0 0,0 0,-0.1 l -2.2,-2.2 0,-1.6 c 0.5,-0.1 1,-0.4 1.2,-0.8 0.2,-0.3 0.3,-0.7 0.3,-1.1 l 0,0 0,-4 0,0 c 0,-0.4 -0.1,-0.8 -0.3,-1.1 -0.4,-0.5 -1,-0.9 -1.7,-0.9 -1.1,0 -2,0.9 -2,2 l 0,4 c 0.1,0.9 0.8,1.7 1.7,1.9 z"
           class="st2" /><path
           style="fill:#ffffff"
           inkscape:connector-curvature="0"
           id="path165"
           d="m 741.3,412.7 c 0,0.4 0.1,0.8 0.3,1.1 0.3,0.5 0.8,0.8 1.4,0.9 l 0,1.6 0,0 0,0 0,0 0,0.1 c 0,0 0,0.1 0.1,0.1 l 0,0 0,0 0,0 1.1,1.1 0,1.9 -2.2,0 0,3.6 5.4,0 0,-3.6 -2.3,0 0,-2.1 0,0 0,0 c 0,-0.1 0,-0.1 0,-0.2 l 0,0 c 0,0 0,0 0,-0.1 0,0 0,-0.1 -0.1,-0.1 l 0,0 0,0 -1.1,-1.1 0,-1.5 c 0.8,-0.3 1.4,-1 1.4,-1.9 l 0,-4 c 0,-1.1 -0.9,-2 -2,-2 -0.7,0 -1.3,0.4 -1.7,0.9 -0.2,0.3 -0.3,0.7 -0.3,1.1 l 0,0 0,4.2 0,0 z"
           class="st2" /><path
           style="fill:#ffffff"
           inkscape:connector-curvature="0"
           id="path167"
           d="m 735.9,479.2 0,4.3 c 0,1.2 1,2.2 2.2,2.2 1.2,0 2.2,-1 2.2,-2.2 l 0,-4.3 c 0,-1 -0.7,-1.8 -1.6,-2.1 l 0,-12.1 1,0 0,-1.2 -2.9,0 0,1.2 1,0 0,12.1 c -1.1,0.1 -1.9,1 -1.9,2.1 z"
           class="st2" /><path
           style="fill:#ffffff"
           inkscape:connector-curvature="0"
           id="path169"
           d="m 721.5,483.5 c 0,1.2 1,2.2 2.2,2.2 1.2,0 2.2,-1 2.2,-2.2 l 0,-4.3 c 0,-1 -0.7,-1.9 -1.7,-2.1 l 0,-1 3.6,0 0,0 c 0.1,0 0.1,0 0.2,0 l 0,0 c 0,0 0.1,0 0.1,-0.1 0,0 0,0 0.1,0 l 3.8,-3.8 c 0,0 0,0 0,-0.1 0,0 0,-0.1 0.1,-0.1 0,-0.1 0,-0.1 0,-0.2 l 0,-3.4 c 0,-0.1 0,-0.1 0,-0.2 0,0 0,0 0,-0.1 l 0,-2.1 -1,0 0,4.3 0.2,0 0,1.3 -3.5,3.5 -3.7,0 c -0.1,0 -0.1,0 -0.2,0 l 0,0 c 0,0 -0.1,0 -0.1,0.1 l -0.2,0.2 c 0,0 0,0 0,0.1 0,0 0,0.1 -0.1,0.1 0,0.1 0,0.1 0,0.2 l 0,1.3 c -1,0.2 -1.7,1.1 -1.7,2.1 l 0,4.3 -0.3,0 z"
           class="st2" /><path
           style="fill:#ffffff"
           inkscape:connector-curvature="0"
           id="path171"
           d="m 764.7,471.1 0,-4.3 c 0,-1.2 -1,-2.2 -2.2,-2.2 -1.2,0 -2.2,1 -2.2,2.2 l 0,4.3 c 0,1 0.7,1.9 1.7,2.1 l 0,4.4 c -1,0.2 -1.8,1.1 -1.8,2.1 l 0,4.3 c 0,1.2 1,2.2 2.2,2.2 1.2,0 2.2,-1 2.2,-2.2 l 0,-4.3 c 0,-1 -0.7,-1.9 -1.7,-2.1 l 0,-4.4 c 1.1,-0.2 1.8,-1.1 1.8,-2.1 z"
           class="st2" /><path
           style="fill:#ffffff"
           inkscape:connector-curvature="0"
           id="path173"
           d="m 764.6,459.8 0.1,-0.1 c 0,0 0,0 0,-0.1 l 0,-0.1 0,0 0,0 0,0 0,-8.7 0,0 c 0,0 0,0 0,-0.1 l 0,-0.1 0,0 c 0,-0.1 -0.1,-0.1 -0.1,-0.1 l -1.8,-1.8 0,0 0,0 0,0 0,0 -0.1,-0.1 -0.1,0 0,0 -1.1,0 0,-2 -5.1,0 0,1.8 0,0 0,-1.8 -5.1,0 0,1.8 0,0 0,-1.8 -5.1,0 0,3.2 -5.1,5.1 -1.4,0 0,-0.1 -4.3,0 0,0.1 -12.1,0 -1,-1 -1.1,-1.1 c 0,0 0,0 -0.1,0 0,0 -0.1,0 -0.1,-0.1 -0.1,0 -0.1,0 -0.2,0 l -4.8,0 0,-0.1 -4.3,0 0,1 4.3,0 0,-0.1 4.6,0 0.7,0.7 -3,3 -2.3,0 0,-0.1 -4.3,0 0,1 4.3,0 0,-0.1 2.5,0 c 0.1,0 0.1,0 0.2,0 0,0 0.1,0 0.1,-0.1 l 0,0 3.1,-3.1 0.9,0.9 c 0,0 0,0 0.1,0 0,0 0.1,0 0.1,0.1 l 0,0 c 0.1,0 0.1,0 0.2,0 l 12.3,0 0,0.1 4.3,0 0,-0.1 1.5,0 0,0 c 0.1,0 0.1,0 0.2,0 0,0 0.1,0 0.1,-0.1 0,0 0,0 0.1,0 l 4.6,-4.6 0,0.1 5.1,0 0,-1.8 0,0 0,1.8 5.1,0 0,-1.7 0,0 0,1.7 5.1,0 0,-1.7 0.9,0 1.5,1.5 0,8.3 -6.5,6.5 c -0.3,-0.7 -1.1,-1.3 -2,-1.3 -1.2,0 -2.2,1 -2.2,2.2 l 0,4.3 c 0,1 0.7,1.9 1.7,2.1 l 0,4.4 c -1,0.2 -1.8,1.1 -1.8,2.1 l 0,1.7 -2.3,0 c -0.1,0 -0.1,0 -0.2,0 0,0 -0.1,0 -0.1,0.1 0,0 0,0 -0.1,0 l -11.1,11.1 -21.1,0 -7.6,-7.6 c 0.1,-0.2 0.1,-0.4 0.1,-0.6 0,-1.2 -1,-2.2 -2.2,-2.2 l -4.3,0 c -1,0 -1.8,0.7 -2.1,1.6 l -6.8,0 -20.3,-20.3 0,-13 1,-1 2,0 0,1.2 5.1,0 0,-3.2 0,-3.2 -5.1,0 0,3.2 0,1.2 -2.1,0 0,0 -0.1,0 c -0.1,0 -0.1,0.1 -0.1,0.1 l 0,0 0,0 0,0 -1.3,1.3 -0.1,0.1 0,0 0,0.1 c 0,0 0,0 0,0.1 l 0,13.4 0,0 0,0.1 0,0 0,0 c 0,0 0,0.1 0.1,0.1 l 0,0 20.5,20.5 0,0 0.1,0.1 0,0 c 0.1,0 0.1,0 0.2,0 l 6.9,0 c 0.1,1.1 1,1.9 2.1,1.9 l 4.3,0 c 0.6,0 1.2,-0.3 1.6,-0.7 l 7.6,7.6 0,0 0,0 c 0,0 0,0 0.1,0 0,0 0,0 0.1,0 0.1,0 0.1,0 0.2,0 l 21.4,0 c 0.1,0 0.1,0 0.2,0 0,0 0.1,0 0.1,-0.1 0,0 0,0 0.1,0 l 11.1,-11.1 2.1,0 0,1.8 c 0,1.2 1,2.2 2.2,2.2 1.2,0 2.2,-1 2.2,-2.2 l 0,-4.3 c 0,-1 -0.7,-1.9 -1.7,-2.1 l 0,-4.4 c 1,-0.2 1.7,-1.1 1.7,-2.1 l 0,-4.2 7,-7 0,0 z"
           class="st2" /><path
           style="fill:#ffffff"
           inkscape:connector-curvature="0"
           id="path175"
           d="m 736.8,448 0,1.2 2.9,0 0,-1.2 -1,0 0,-5 6.4,-6.4 c 0,0 0,0 0,-0.1 0,0 0,-0.1 0.1,-0.1 0,-0.1 0,-0.1 0,-0.2 l 0,-3.7 2.3,0 0,-3.5 -5.5,0 0,3.6 2.3,0 0,3.5 -6.4,6.4 0,0 0,0 c 0,0 0,0 0,0.1 0,0 0,0.1 -0.1,0.1 l 0,0.1 0,0 0,0 0,0 0,5.2 -1,0 0,0 z"
           class="st2" /><path
           style="fill:#ffffff"
           inkscape:connector-curvature="0"
           id="path177"
           d="m 728,434.3 c 0,0.1 0,0.1 0,0.2 0,0 0,0.1 0.1,0.1 0,0 0,0 0,0.1 l 2.8,2.8 0,5.1 -0.1,0 0,4.3 1,0 0,-4.3 -0.1,0 0,-5.3 c 0,-0.1 0,-0.1 0,-0.2 0,0 0,0 0,-0.1 l 0,-0.1 0,0 0,0 -2.8,-2.8 0,-1.6 2.2,0 0,-3.5 -5.4,0 0,3.6 2.3,0 0,1.7 z"
           class="st2" /><path
           style="fill:#ffffff"
           inkscape:connector-curvature="0"
           id="path179"
           d="m 720.1,433.5 c 0,0.1 0,0.1 0,0.2 l 0,0 c 0,0 0,0.1 0.1,0.1 0,0 0,0 0,0.1 l 1.9,1.9 0,0 0.1,0.1 0,0 c 0.1,0 0.1,0 0.2,0 l 3.3,0 3,3 0,3.7 -0.1,0 0,4.3 1,0 0,-4.3 -0.1,0 0,-3.9 c 0,-0.1 0,-0.1 0,-0.2 0,0 0,0 0,-0.1 l 0,-0.1 0,0 0,0 -3.2,-3.2 0,0 -0.1,-0.1 -0.1,0 c 0,0 0,0 -0.1,0 l -3.3,0 -1.6,-1.6 0,-0.7 2.4,0 0,-3.7 -5.4,0 0,3.6 2.2,0 0,0.9 -0.2,0 z"
           class="st2" /><path
           style="fill:#ffffff"
           inkscape:connector-curvature="0"
           id="path181"
           d="m 712.7,433.9 0,0 c 0,0.1 0,0.1 0,0.2 l 0,0 0.1,0.1 0,0 3.7,3.7 0,0 0.1,0.1 0,0 c 0.1,0 0.1,0 0.2,0 l 7.6,0 2,2 0,2.5 -0.1,0 0,4.3 1,0 0,-4.3 -0.1,0 0,-2.7 c 0,-0.1 0,-0.1 0,-0.2 l 0,0 c 0,0 0,-0.1 -0.1,-0.1 0,0 0,0 0,-0.1 l -2.2,-2.2 0,0 0,0 -0.1,-0.1 -0.1,0 c 0,0 0,0 -0.1,0 l -7.6,0 -3.4,-3.4 0,-1.2 2.2,0 0,-3.5 -5.4,0 0,3.6 2.4,0 0,1.3 -0.1,0 z"
           class="st2" /><path
           style="fill:#ffffff"
           inkscape:connector-curvature="0"
           id="path183"
           d="m 712.8,469.5 0,0 c -0.2,-0.1 -0.2,-0.1 -0.3,-0.1 l -1.9,0 c -0.2,-0.9 -1.1,-1.6 -2.1,-1.6 l -4.3,0 c -1.2,0 -2.2,1 -2.2,2.2 0,1.2 1,2.2 2.2,2.2 l 4.3,0 c 1.1,0 2,-0.8 2.1,-1.9 l 1.7,0 5.6,5.6 0,9.3 0,0 c 0,0.1 0,0.1 0,0.1 l 0,0 c 0,0 0,0.1 0.1,0.1 l 0,0 3.3,3.3 c 0,0 0,0 0.1,0 0,0 0.1,0 0.1,0.1 l 0,0 c 0.1,0 0.1,0 0.2,0 l 0,0 0,0 6.4,0 0,0 0,0 0.1,0 0,0 c 0,0 0.1,0 0.1,-0.1 0,0 0,0 0.1,0 l 2.8,-2.8 c 0,0 0,-0.1 0.1,-0.1 0,0 0,0 0,-0.1 0,0 0,0 0,-0.1 1,-0.2 1.7,-1.1 1.7,-2.1 l 0,-4.3 c 0,-1 -0.7,-1.9 -1.7,-2.1 l 0,-0.4 2.6,-2.6 0,0 0.1,-0.1 0,-0.1 0,0 0,0 0,0 0,-3.4 0.1,0 0,-2.9 -1.1,0 0,2.9 0.1,0 0,3.3 -2.6,2.6 c 0,0 0,0.1 -0.1,0.1 0,0 0,0 0,0.1 l 0,0 c 0,0.1 0,0.1 0,0.2 l 0,0.5 c -1,0.2 -1.8,1.1 -1.8,2.1 l 0,4.3 c 0,1 0.7,1.8 1.6,2.1 l -2.3,2.3 -6.1,0 -3,-3 0,-9.3 0,0 c 0,-0.1 0,-0.1 0,-0.2 0,0 0,-0.1 -0.1,-0.1 l 0,0 0,0 0,0 -5.9,-6 c 0.1,0 0.1,0 0,0 z"
           class="st2" /><path
           style="fill:#ffffff"
           inkscape:connector-curvature="0"
           id="path185"
           d="m 694.5,421 0.9,0 c 1,-0.2 1.7,-1.1 1.7,-2.1 l 0,-1.6 0.8,0 7.2,7.2 0,9 0,0 c 0,0.1 0,0.1 0,0.1 l 0.1,0.1 0,0 6.7,6.7 0,0 0.1,0.1 0,0 c 0.1,0 0.1,0 0.2,0 l 10.8,0 1.2,1.2 0,0.7 -0.2,0 0,4.3 1,0 0,-4.3 0,0 0,-0.9 c 0,-0.1 0,-0.1 0,-0.2 l 0,0 c 0,0 0,-0.1 -0.1,-0.1 0,0 0,0 0,-0.1 l -1.4,-1.4 0,0 0,0 -0.1,-0.1 0,0 -0.1,0 c 0,0 0,0 -0.1,0 l -10.8,0 -6.4,-6.4 0,-9 0,0 c 0,-0.1 0,-0.1 0,-0.1 l -0.1,-0.1 0,0 -7.4,-7.4 0,0 0,0 0,0 -0.1,-0.1 -0.1,0 c 0,0 0,0 -0.1,0 l -0.9,0 0,-1.9 c 0,-1.2 -1,-2.2 -2.2,-2.2 -1.2,0 -2.2,1 -2.2,2.2 l 0,4.3 c -0.1,1 0.6,1.9 1.6,2.1 z"
           class="st2" /></g></g></g></svg>